<svg id="圖層_1" data-name="圖層 1" xmlns="http://www.w3.org/2000/svg" viewBox="0 0 566.93 566.93"><title>services</title><path d="M312.92,138.88a40.51,40.51,0,0,1,5.82,3c16.34,11.9,34.92,18.32,54.6,21.31a122.23,122.23,0,0,0,46.54-2.27c12.81-3,23.45,1.81,32.59,10.66,10.59,10.24,12.85,24,15.24,37.47,1.94,10.95,3.13,22.06,4,33.15a87.19,87.19,0,0,1-1,18.27c-1.31,9.52-2.79,19.07-5,28.41-2.81,12-8.54,21.91-21.43,25.88A6.17,6.17,0,0,0,441,319c-1.9,12.44-4.08,24.89-5,37.42a375.09,375.09,0,0,0-.94,42.76c.53,12.55,2.71,25.05,4.53,37.52,1,7.08,3,14,4.18,21.08,2,11.29-8.33,23-19.74,23.72-13.39.87-21.69-8-24.09-21.46-2.58-14.46-5.53-28.93-6.86-43.53-1.34-14.84-1.21-29.84-1.17-44.76a302.21,302.21,0,0,1,12.28-83.31,70.9,70.9,0,0,0,2.53-16.93c.39-10.69.11-21.4.11-32.1a1.41,1.41,0,0,0,0-.5c-3.84-9.37,3-12,9.35-15.32,11.53-6,20.32-15.06,27.37-25.76,5-7.55,2-18.26-5.89-23.09a17.28,17.28,0,0,0-23,5.09,36.62,36.62,0,0,1-2.86,4c-4.3,4.85-8.53,8.83-16.23,7.75-10.58-1.48-21.4-1.12-32-2.44-3.51-.43-6.67-3.63-10-5.52-3.75-2.12-7.71-3.92-11.25-6.35a35,35,0,0,1-8.15-7.34c-7.48-9.89-14.6-20-21.85-30.1Z"/><path d="M296.68,423.36H277.18c-2.75,0-4.57-.14-3.58,4.08,2,8.41,2.87,17.07,4.3,25.61.5,3,1.86,4.18,5.47,4.51,17.72,1.62,35.41,3.72,51.67,11.85.88.44,2,.68,2.57,1.38,1.84,2.42,3.45,5,5.15,7.52-2.43,1.35-4.74,3.54-7.32,3.92-11.33,1.66-22.71,3.3-34.13,4-13.9.87-27.85.94-41.78,1.09-15,.17-30.09.68-45.06-.15-14.53-.81-29-3.13-43.46-4.83a12.36,12.36,0,0,1-4.22-1.09c-2.67-1.4-4.24-3-1.38-6.07,6.38-6.81,14.61-10,23.35-11.72,12.16-2.39,24.47-4,36.66-6.25,1.3-.24,2.92-2.37,3.22-3.86,1.83-9.11,3.25-18.31,5-27.44.65-3.43-1.75-2.5-3.3-2.51-12.49-.06-25,0-37.48,0-5.85,0-7.75-1.56-7.94-7.42-.23-7-.21-14,0-21,.13-4.37,3.05-5.64,7.09-5.63,24,.07,48,0,72,0,9.16,0,18.33-.05,27.49,0,2.71,0,3.78-.69,4.57-3.7,8.17-31.32,16.63-62.56,25.05-93.81,1.58-5.87,4.8-7.64,10.7-6.09,5.65,1.49,11.3,3,16.95,4.49,7.23,1.89,7.25,4.51,5.83,10.26C349,322.79,342.77,344.86,336.82,367q-6.52,24.25-13,48.53c-1.88,7.12-3.82,8.21-9.68,7.89S302.51,423.36,296.68,423.36Z"/><path d="M240.07,299c1.69-16.7,1.95-32.44,5.19-47.54,3-13.87,12-24,27.07-27.34,9-2,20.61,2.72,26.5,11.06,5.58,7.89,7.86,16.49,8.12,26.17.85,31.19-5.65,60.89-17.43,89.52-5.62,13.67-14.36,24.68-29.48,28.78a42.32,42.32,0,0,1-10.61,1.64q-30.74.23-61.49,0c-3.72,0-5.85,1.1-8,4.26-13.89,20.55-28.18,40.83-42.07,61.39-3.71,5.49-7.23,10.91-13.75,13.25a21.65,21.65,0,0,1-28.35-15c-2.36-8.79,1.57-15.48,6.13-22.15q14-20.41,27.94-40.8c8-11.71,15.92-23.51,24.12-35.09,1.75-2.48,4.43-4.41,7-6.19,1.54-1.09,3.63-1.42,5.47-2.09a50.83,50.83,0,0,0-.52,5.06c-.08,11,7.67,21,22.07,18.28,16.37-3.13,32.22-8.1,46.91-16.29,22.65-12.63,39.53-30.25,49.16-54.71a91.69,91.69,0,0,0,6.79-36.91c-.22-6.9-3.61-11.68-10-14.37A16.39,16.39,0,0,0,263,242.55c-5.19,4.44-6,10.08-6.27,16.37C256.12,273.79,250.27,286.63,240.07,299Z"/><path d="M403.12,79.36c21,0,38.75,15.33,38.33,38.36-.4,21.91-15.19,37.9-38,38.42-22.14.5-39.78-18.27-38.84-40.6C365.41,96.87,382.79,78.12,403.12,79.36Z"/><path d="M287.83,259.79c-2,25.86-12.58,49.89-33.93,68.68-19.84,17.46-43.64,26.22-69.28,30.69-6.48,1.13-13.55-4.31-14.78-11.19-1.35-7.53,2.81-14,10.22-15.63,14-3,27.76-6.42,40.33-13.49,24.28-13.66,38.32-34,40-62.16.65-10.79,7.49-16.5,17.31-14.14C284.41,244.15,287.84,249.23,287.83,259.79Z"/><path d="M386,229.58c-19.79-.81-35.07-7.84-48.61-19.16a98.52,98.52,0,0,1-7.78-6.84,14,14,0,0,1,.38-19.89c4.64-4.67,13.38-4.59,18.8.11,7.42,6.43,15,12.51,24.53,15.82,12.66,4.37,23.58,1.18,33.4-6.83,4-3.25,7.3-7.38,10.53-11.42,5.29-6.61,13.72-8,20.33-2.55,5.35,4.43,7.16,12.48,1.7,19.62-10.7,14-23.6,24.86-41.12,29.11C393.6,228.66,388.86,229.11,386,229.58Z"/><path d="M313.49,181.69a38.35,38.35,0,0,1-35,33.68c-20.87,1.79-37.27-13.67-40.8-29.64-4.89-22.07,8.6-42.32,30.2-47,6-1.29,12.68.58,19,1.27,1.19.13,3.2,1.63,3.14,2.38-.13,1.77-.81,4-2.08,5.11A118.42,118.42,0,0,1,276.58,156c-3.39,2.29-7,4.61-5.19,9.31,1.65,4.38,5.56,5.24,8.72,4.4.38,3.32-.35,7.46,1.38,9.27,2,2.06,6.12,2,9.16,2.87-.19.33-1.78,1.87-1.63,3.19.31,2.56.92,6,2.69,7.2s5.59.91,7.61-.27C304.15,189.13,308.46,185.41,313.49,181.69Z"/><path d="M334.6,176.12,323,185.66c-2.35-2.69-4.95-8.18-8-8.46-3.24-.3-6.94,4.37-10.44,6.87-2.43,1.73-4.71,3.75-7.34,5.07-1.22.61-3.12-.14-4.71-.28.25-1.61-.08-3.94.86-4.71,4.85-4,9.92-7.75,15.14-11.24,2.85-1.91,2.69-3.48.78-5.85s-3.34-2.46-5.7-.64c-4.7,3.62-9.67,6.9-14.44,10.44-2,1.45-4.08,2.62-5.17-.24-.52-1.37.42-4.15,1.64-5.17a150.75,150.75,0,0,1,14.74-10.94c3.65-2.36.65-3.62-.26-5.43-1.22-2.42-2.49-2.48-4.59-.84-4.69,3.67-9.44,7.28-14.43,10.51-1.43.93-3.75.48-5.66.67.57-2,.55-4.57,1.84-5.76,3.12-2.89,6.83-5.14,10.35-7.59,3.36-2.34,6.79-4.18,6.55-9.51-.09-1.92,3.08-4.91,5.37-5.74,2-.71,5.83.14,7,1.71C316.3,151,325.58,163.89,334.6,176.12Z"/></svg>