<svg id="圖層_1" data-name="圖層 1" xmlns="http://www.w3.org/2000/svg" viewBox="0 0 566.93 566.93"><title>services</title><path d="M144.8,396.54c9.55,5.15,20.14,7.26,30.94,8.33,19.14,1.9,38.26,4,57.39,6l.14-.61c5.09-.47,10.18-.84,15.26-1.43,11.06-1.28,22.23-2,33.11-4.21,8.37-1.68,16.94-4.23,22.5-11.74C315.49,377.52,320,359.42,324,341.33c2.65-12.09,3.32-24.61,5.27-36.88,2.29-14.41.74-28.62-2.28-42.62-2.43-11.29-7.07-21.72-16-29.78-11.24-10.13-24.42-12.24-38.92-10.8-10.35,1-19.2,4.65-25.49,12.91-8.58,11.26-12.45,24.61-15.35,38.21A60.35,60.35,0,0,1,212.6,304.5c-12.53,11.6-27.46,19.81-42.43,27.94-12,6.53-24.85,12.05-34.52,22.24-6,6.33-9.91,13.28-7.73,22.76C130.15,387.11,137,392.36,144.8,396.54Z"/><path d="M469,204.43c-2.26-13.31-5.88-26.28-17.13-35.43-7.62-6.19-16-9.71-26-8.26-9.87,1.43-19.79,3.92-29.65,3.75a192.41,192.41,0,0,1-36-4.4c-15-3.14-28.42-10.27-41-18.88a13,13,0,0,0-18.33,2.87c-2.47,3.29-3.76,2.45-6.12.76-8.71-6.26-18.78-7.53-28.78-5.69-17.86,3.29-31.15,19.89-31,38.61.23,24.24,25.21,44.38,50,36.22,15.65-5.16,24-16.12,27.23-31.63.8-3.79-.92-5.75-4.71-6.59a140.27,140.27,0,0,1-16-4.38c-2.82-1-5.85-2.82-4.57-6.79,1.24-3.82,4.89-5.38,9.2-4.31s8.48,2.06,13.49,3.27c-1.07-4.89-2.68-9.43-2.85-14-.1-2.8,1.23-6.94,3.31-8.23,3-1.85,6.55,0,7.74,3.81a78.13,78.13,0,0,1,3.31,13.2c1.21,9.2,5.94,12.16,14.41,8.45,7.11-3.11,15.69,2.12,16.68,10.16.65,5.31,7.69,12.48,13.11,12.87,11.52.82,23.07,1.16,34.57,2.15,5.27.45,8.8-2,12-5.38a44.11,44.11,0,0,0,5.33-7c4.45-7.13,16.61-9.08,23.65-3.66,8.43,6.48,9.3,15.85,4.65,22.88-7.43,11.21-16.88,20.67-29.28,26.4-5.69,2.63-10.25,5.05-7.09,12.42.36.85.05,2,.05,3,0,9.2.12,18.4,0,27.59A81.6,81.6,0,0,1,408,282.92c-2.44,11.93-6,23.66-8,35.64-2.49,14.67-5.1,29.48-5.51,44.3-.53,19.5.59,39.08,1.87,58.57.75,11.38,2.88,22.71,5,34,1.45,7.77,2.56,15.79,9.36,21.55,6.48,5.48,17,6.62,25.25,1.93,7.3-4.14,11.12-14.11,9.7-22.37-3.11-18.2-6.66-36.43-8.13-54.79-1.2-15-.19-30.21.85-45.26.87-12.7,3.11-25.32,5-37.93a5.08,5.08,0,0,1,3.08-3.27c12.32-3.56,18.53-13.06,21.45-24.24,4.33-16.6,6.69-33.67,5.27-50.93C472.12,228.16,471,216.21,469,204.43Z"/><path d="M346.41,290.47c-2.52-.68-5.28-.77-7.56-1.89-4-1.94-3.56.43-3.71,3-.59,9.87-.72,19.82-2.11,29.58a269.75,269.75,0,0,1-14.94,57.06c-5.34,14.19-13.58,25-28.91,29.66-16.71,5-33.88,6.07-51.06,6.81-10.73.46-21.54-.3-32.29-.93-7.36-.44-14.67-1.6-22.65-2.52,0,1.21,0,2.18,0,3.16-.09,8,1.37,9.43,9.46,9.43,12,0,24,0,36,0,1.53,0,4-1,3.34,2.47-1.71,9.14-3.11,18.34-5,27.45-.32,1.53-2.23,3.65-3.68,3.89-11.44,1.94-23,3-34.4,5.31-8.41,1.67-16.95,3.87-23.48,10.15-4.87,4.68-4.29,7.12,2,9.36a8.43,8.43,0,0,0,1.95.34c16,1.67,32,4.41,48,4.76,26.08.57,52.21,0,78.29-.92,13.09-.44,26.14-2.39,39.16-4,2.2-.27,5.35-1.91,5.92-3.63.51-1.55-1.54-4.43-3.12-6.08a19.58,19.58,0,0,0-6.78-4.73A158.56,158.56,0,0,0,281.17,458c-4-.19-4.52-2.18-5-5-1.38-8.38-2.16-16.91-4.3-25.09-1.23-4.72.86-4.09,3.66-4.08,12.5,0,25-.06,37.5.05,4.36,0,7-1.36,8.23-5.92,4.38-16.82,9-33.59,13.55-50.37,6-22.13,12.16-44.23,18.12-66.37C354.66,294.77,353,292.24,346.41,290.47Z"/><path d="M405.38,156.65c21.38.22,38.41-17.58,38.78-38.29-.21-21.74-16.83-39.75-38.7-39.2-24.59.62-38.88,17-38.85,38.95C366.63,140.6,383.23,156.41,405.38,156.65Z"/><path d="M442.18,197.69a13.65,13.65,0,0,0-2.76-19.09c-5.81-4.52-12.87-3.81-18.53,2-3.79,3.91-7.05,8.39-11.14,11.95-8.67,7.54-18.52,11.13-30.34,8.43-11-2.51-19.52-8.88-27.55-16.11-6-5.37-14.21-5.94-19.58-.69a13.79,13.79,0,0,0,0,20.14A113.09,113.09,0,0,0,344,214.09c12.61,9.33,26.57,15.14,43.23,15.83C410.7,228.93,428.41,216.72,442.18,197.69Z"/><path d="M126.86,388.25c-.24-.29-2.94.6-3.61,1.56-8.63,12.28-17.43,24.47-25.43,37.16a29.8,29.8,0,0,0-4.39,14.69c-.14,8.34,7.59,17.15,15,19.11,9.93,2.6,18.81-.26,24.35-8.28,10.09-14.63,20-29.38,30.2-44.44C148.93,404.83,136.11,399.79,126.86,388.25Z"/><path d="M307.81,166.71c-4.55-.89-9-2.15-14.28-3.43l-3.33,2c1,1.11,1.88,2.84,3.14,3.23,5.37,1.68,10.87,2.94,16.31,4.41,4.46,1.21,7.33,4.12,7.41,8.76a24.61,24.61,0,0,1-1.65,8.92c-1.92,5.06.63,11.15,5.77,12.08,1.51.28,3.23-.59,4.85-.94-1.19-1-2.44-2-3.57-3.07-1.34-1.29-3.27-2.52-3.62-4.08-.25-1.14,1.39-3.67,2.61-4,5.23-1.41,5.24-3.63,2.24-7.5a5,5,0,0,1,0-4.84c.7-.85,3.77-1,4.69-.22,3.89,3.38,6.08,1.13,7.83-2,2.13-3.84,4.5-3.24,7.22-.92.61.52,1,1.42,1.64,1.78a11,11,0,0,0,2.72.7,9,9,0,0,0,0-2.78c-1.42-4.54-5.95-6.38-10.95-4.55-11,4-16.31,1-18.77-10.43a100.66,100.66,0,0,0-3-11.49c-.56-1.63-2.17-2.89-3.31-4.32-.55,1.81-1.73,3.7-1.52,5.42.51,4.06,1.75,8,2.58,12.05C313.89,166.39,312.73,167.68,307.81,166.71Z"/></svg>