<svg id="圖層_1" data-name="圖層 1" xmlns="http://www.w3.org/2000/svg" viewBox="0 0 566.93 566.93"><title>services</title><path d="M200.88,362.43c20,0,40-.14,60,.1,4.59.06,7.62-1.67,10.92-4.59,10-8.82,20.3-17.18,30.46-25.78,9.43-8,18.79-16,28.19-24,4.5-3.84,8.94-7.77,13.59-11.42.71-.55,2.9-.27,3.63.44,5.13,5,11.82,5.33,18.23,6.21,4.93.67,9.46,4.53,9.84,9.68a5,5,0,0,1-1.73,3.44q-10,8.77-20.24,17.3c-7.55,6.32-15.22,12.49-22.76,18.83-14.58,12.24-29.42,24.2-43.49,37-5.76,5.24-11.43,7.39-19,7-9.8-.54-19.65-.12-29.48-.14-3.71,0-7.14-1.21-5.61,5.57,3.61,16.06,6.23,32.35,8.69,48.63.82,5.43,4.9,3.91,7.59,4.65,11.11,3.08,22.45,5.32,33.49,8.6,3.37,1,6.25,4.13,9,6.67,2.41,2.23,2.52,4.81-1.14,6.07-4.13,1.41-8.3,3-12.58,3.65a180.81,180.81,0,0,1-22.58,2.08c-28.92.54-57.87,1.43-86.77.82-16.47-.35-33.2-.67-49.24-5.67-5.78-1.8-6.94-5.46-1.79-8.58a112.26,112.26,0,0,1,23.5-10.29c6.92-2.23,14.39-2.73,21.54-4.31a5.21,5.21,0,0,0,3.38-3.19c3.18-16.66,6.13-33.36,9.11-50.06.54-3.05.06-5-4-4.72a69.64,69.64,0,0,1-14.47,0c-6.51-.87-10.91,2.27-15.18,6.29q-25.07,23.6-50.17,47.16c-8.28,7.75-16.67,15.37-25,23-3.64,3.35-7.44,3.68-10.89.28a197.79,197.79,0,0,1-14.19-15.31c-2.25-2.74-2.55-6.49.38-9.23,12-11.23,24.21-22.3,36.31-33.46q8-7.34,15.85-14.77c11.2-10.52,22.47-21,33.55-31.61,4.32-4.15,8.67-6.61,15.14-6.45C162.22,362.74,181.55,362.43,200.88,362.43Z"/><path d="M447.44,199.57c3.86-11.57,7.18-23.7,19.1-30s22.31-3.77,32.6,6.09c10.09,9.66,16.17,22.08,21.43,34.86,9.15,22.21,14.89,45.46,19.77,68.85,3.66,17.56,5.6,35.49,8.27,53.26q1.07,7.14,1.95,14.31c.22,1.83.36,3.28-2.53,3.61-12.35,1.43-24.65,3.24-37,4.94-3.09.43-4.59,1.66-4.57,5.38q.28,50,.06,100c0,11.45-6.88,17.07-17.08,18.49-5.22.73-14.12-5.18-15.79-10.37a35,35,0,0,1-2-10.5c0-12.59.72-25.18.69-37.76-.05-18.78-.56-37.56-.74-56.33,0-2.61-1.13-3.19-3.3-2.9-3.73.5-7.5.85-11.17,1.61-5.65,1.17-6.92.26-7.6-5.35-1.91-15.61-4-31.19-5.9-46.8-.57-4.74-.93-9.52-1-14.29-.42-18.76-.66-37.52-1.09-56.28-.06-2.72.7-4.06,3.41-5,14.78-4.9,27.2-13.45,37.95-24.68,8.34-8.71,6.67-19.25,1.37-24.16-5.75-5.33-15.35-5.64-21-.24-4.9,4.66-9.72,9.41-14.57,14.11Z"/><path d="M434.61,352.41q0,49.47,0,98.94c0,7.55-.09,15.11,0,22.66,0,2.52-.59,3.48-3.31,3.47q-30.73-.15-61.46,0c-3,0-3.51-.9-3-3.82,3-16.35,6-32.72,8.64-49.14,2.3-14.54,4.82-29.11,5.83-43.76,1.2-17.37,1.25-34.84,1-52.26-.08-6-2.16-12.16-3.93-18.06-2.07-6.9-7.48-10.95-14.11-11-12.6,0-21.07-7.86-24.47-19.54-2.85-9.77-3-19.69-1.52-29.8.52-3.65,1.91-3.73,4.65-3.73q40.48.08,81,0c10.63,0,10.63,0,10.63,10.54Z"/><path d="M222.74,289.51c22.61-9,43.22-21.53,63.8-34.08,8.62-5.25,18.24-6.28,27.66-4.74,11.08,1.81,17.12,10.5,18.23,22.66,1.47,16.21-5.69,29-18.69,38.33-9,6.49-18.07,13-27.67,18.57-14.67,8.45-30.5,14.08-47,18.36-21.26,5.52-42.76,3.3-64.17,3.75-15.82.33-31.66-.06-47.48.2a12,12,0,0,0-7.24,3c-12,11-23.83,22.35-35.74,33.53C74.93,398,65.25,406.8,55.77,415.8,45,426,34.49,427.16,24,419.62c-9.25-6.65-10.45-23.35-2.32-30.88C36.16,375.33,50.27,361.52,64.6,348c10-9.51,20.31-18.79,30.29-28.38,7.18-6.9,14.94-10.86,25.49-10.37,17,.79,34,.24,51,.19a24.89,24.89,0,0,1,11.54,2.78c8.57,4.18,17.76,7.19,26.88,10.12,11.81,3.78,24.15,4,36.31,3a99.69,99.69,0,0,0,54.71-21.66,142.2,142.2,0,0,0,15-14c5.56-5.91,7.13-16.65-1.34-23.94-6.75-5.81-16.78-6.15-23,.55-10.92,11.66-23.54,20.19-39.43,23.54C242.25,291.79,232.58,292.21,222.74,289.51Z"/><path d="M413.61,122c-.53-21.84,18-38.45,38.26-38.43,21.52,0,39.49,16.8,38.72,40-.73,22.12-17.24,37.71-39.07,37.53C431.06,160.91,413.46,145.53,413.61,122Z"/><path d="M238.93,323.07c-17.64-.92-34.54-4.19-50.61-11.36-10.77-4.81-13.19-15.72-5-23.4a12.2,12.2,0,0,1,12.57-3c10,2.92,20,5.93,30.1,8.11,14.27,3.06,28.15.56,41.27-5.4a74.9,74.9,0,0,0,26.14-19.49c5.1-5.91,12.56-5.86,19-.72,5.29,4.21,5.82,13.49,1.59,18.72-14.15,17.49-32.56,28-54.32,32.82C252.82,320.9,245.85,321.85,238.93,323.07Z"/><path d="M417.73,236.83c-17,.41-32.23-5.09-46.92-12.77-6.45-3.37-9-10.1-6-16.1s10.22-8.19,16.78-5.64c8.61,3.35,17.25,6.89,26.19,9a49,49,0,0,0,39.07-6.94c6.34-4.13,11.78-9.75,17.28-15,4.58-4.4,12-5.34,16.49-1.47,6.14,5.33,6.89,12.38,1.79,18.21-12.8,14.61-28.48,24.69-47.48,29C429.35,236.41,423.47,236.31,417.73,236.83Z"/><path d="M334.18,253.07a36.85,36.85,0,0,1-13.4-21.87,38.85,38.85,0,0,1,17.77-40.87c5-3,11.21-4.1,16.93-5.85,2.2-.67,2.9.5,3.27,2.89.55,3.62,1.14,7.85,3.33,10.44,2.82,3.34,2,5.35.25,8.46a14.32,14.32,0,0,0,6.32,20.14c7.49,3.51,15.17,6.61,22.74,9.94a19.62,19.62,0,0,1,2.81,1.85c-1.34,1.73-2.49,4.71-4.07,5-4.39.69-9,.24-13.45.24-11.49,0-23,.19-34.45-.1-4.25-.11-7.22.37-7.37,5.39A40.34,40.34,0,0,1,334.18,253.07Z"/><path d="M405.33,187.6c-6.18-9.93-13.47-10.37-21.19-1.16-2.17,2.58-3.25,2.68-4.73-.68-2.14-4.84-6.52-7-9.78-5.45-4.17,2-5.93,7.85-3.68,12.38a28.48,28.48,0,0,1,2.61,6.21c-4.8-1.92-5.92-6.36-6.83-10.65-.81-3.8,1-6.95,4.38-8.71,3.85-2,8.29-2.9,11.65.31s5.74,2.86,9.44.31c6.06-4.18,12.54-3.36,17,1.59,1.15,1.25,1.09,3.61,1.58,5.46Z"/><path d="M390.61,201.91c-6-1.61-11.88-2.32-16.82-4.85-2.62-1.35-3.65-5.84-5.25-9,0-.09,1.82-1.64,2.27-1.42C378.41,190.37,386.16,194,390.61,201.91Z"/><path d="M421.7,196.26c.06,2.16-2,4.18-6,4.28s-6.15-2-6.44-5.89a5.88,5.88,0,0,1,6.34-6.56C419.51,188.24,421.64,190.31,421.7,196.26Z"/><path d="M388.91,170.93c0,4.08-2.52,5.74-5.77,5.74s-5.75-1.36-5.58-5.43c.15-3.57,1.64-5.61,5.29-5.81C386.9,165.22,388.37,167.73,388.91,170.93Z"/><path d="M424.82,172.68c-2.14,1.56-4.52,4.61-6.35,4.3-2.19-.36-5.46-3.65-5.39-5.56s3.32-5.19,5.54-5.54c1.79-.28,4.12,2.88,6.22,4.52Z"/><path d="M405.81,187.19c4.2,2.38.57,5,0,7.35-.39,1.61-2,2.94-2.52,3.71,3.05,2.7,6,5.19,8.74,7.86.36.35-.16,1.61-.27,2.45-.64-.42-1.64-.7-1.88-1.28-1.94-4.75-5.77-5.92-10.39-5.91-.67,0-1.34-.61-2-.93.32-.54.64-1.09,1-1.63l6.87-11.22Z"/><path d="M401.65,188.53c-3.05,1.89-4.81,3.84-6.21,3.61s-3.5-2.56-3.53-4c0-1.2,2.42-3.32,3.91-3.45S398.78,186.52,401.65,188.53Z"/><path d="M401.47,164.42c1.85,2.84,3.7,4.44,3.48,5.67-.28,1.6-2.22,2.9-3.44,4.33-1.4-1.32-3.72-2.51-3.92-4S399.46,167.35,401.47,164.42Z"/></svg>