<svg id="圖層_1" data-name="圖層 1" xmlns="http://www.w3.org/2000/svg" viewBox="0 0 566.93 566.93"><title>services</title><path d="M320.33,424.23c-18.52-1.14-32.77-1.47-46.88-3s-28.61-3-42-8.87c-8.73-3.81-16.43-9.1-19.67-18.54-3-8.65-.47-16.47,5.42-23.29,7-8.14,16.54-12.77,25.54-18.14,14.69-8.75,29.55-17.25,43.95-26.46,16.48-10.55,25.16-26.37,29.26-45.25,2.54-11.67,6.81-22.84,14-32.55,5.81-7.83,14.26-11.69,23.6-12.55,8.7-.79,17.57-1.16,26.17,1.81,13.41,4.63,21.85,14.33,27,27,4.44,11,5.92,22.65,6.26,34.56a231.26,231.26,0,0,1-14.17,85.85,119.19,119.19,0,0,1-8.61,18.64c-5.89,10.29-16.38,14-27.07,15.78C347.61,421.71,331.85,422.91,320.33,424.23Z"/><path d="M377.24,438.35c-6.33,0-12.67.16-19-.07-3.14-.12-3.78,1.32-3.33,3.86,1.63,9.15,3.27,18.31,5.1,27.42.15.75,1.73,1.55,2.75,1.73,13.32,2.41,26.81,4.09,39.92,7.32,6.74,1.66,13.17,5.51,19,9.41,4.18,2.77,3.07,7.08-1.92,8.16-8.28,1.79-16.69,3.67-25.11,4-27.35,1.09-54.74,2.29-82.09,1.89-19.69-.29-39.35-3-59-4.79a16.21,16.21,0,0,1-4.66-1.41c-3.54-1.48-4.66-5.13-1.6-7.27,5.13-3.58,10.6-7.55,16.5-9,14.22-3.48,28.78-5.55,43.17-8.36a4.34,4.34,0,0,0,2.77-2.72c1.8-8.28,3.37-16.61,5-24.93.63-3.33.45-5.52-4.23-5.38-11.65.36-23.33.21-35,.08-7.58-.08-9.37-3.21-9.69-10-.15-3.11,1.56-3.27,3.72-2.9,21.67,3.78,43.59,3.59,65.38,2.69,15.59-.65,31.27-2.71,45.72-9.69A33.29,33.29,0,0,0,396,403.09c10-19.18,15.85-39.66,18.78-60.93,1.66-12,2.35-24.23,3-36.37.2-4,1.75-4.25,4.69-3.4,3.12.9,6.22,1.86,9.29,2.92,4.33,1.49,6,4.44,4.83,8.72Q423,364.21,409.35,414.4c-1.53,5.65-3.09,11.3-4.43,17-1.1,4.7-3.82,7-8.69,7C389.91,438.29,383.57,438.35,377.24,438.35Z"/><path d="M349.92,137.58c11.72-7.39,23.46-13.31,37.72-12.31,10.72.75,21.24,10.68,21.13,21.44-.06,6.52-1.27,13-1.95,19.55-.65,6.19-1.36,12.38-1.91,18.59-.44,4.92-.63,9.86-1.07,14.78-.21,2.33-1.19,3.67-4,3.8-14,.63-24.07-5.83-33.15-16.08-8.32-9.4-17.92-17.77-27.6-25.83-10.56-8.79-10.4-5-.43-15.38,4.72-4.89,10-5.91,16.27-2.87,4.33,2.09,6.69,5.31,6.93,9.86,1,17.75,11.93,24,24.64,27.94,1.24.38,2.87-.52,4.32-.83-1.14-.89-2.16-2.29-3.44-2.59-7.73-1.81-14.85-4.8-18.64-12.17-2-3.89-2.86-8.47-3.67-12.84-1.38-7.46-5.52-11.94-12.89-13.59C351.49,138.88,350.91,138.24,349.92,137.58Z"/><path d="M317.78,193.29c.73-12.63,4.09-22.66,13-30.09,1-.88,3.93-1.15,4.83-.38,10.49,8.91,22,16.57,30,28.38,5,7.52,13,12.11,21.9,14,5,1.07,4.47,3.28,2.38,6.39-7.08,10.51-16.65,16.62-29.56,17.82a38,38,0,0,1-40.45-27.56C318.86,198.62,318.24,195.26,317.78,193.29Z"/><path d="M246.36,422c-6.71,9.88-13.13,19.49-19.71,29q-6.42,9.26-13.23,18.25c-6,7.94-19.45,7.38-25.37,4.07-9.33-5.21-12.58-13.83-10.92-23.75.61-3.66,3.23-7.11,5.38-10.35,8.2-12.36,16.58-24.61,24.92-36.88a12,12,0,0,1,1.79-1.73C218.21,413.09,231.16,418.56,246.36,422Z"/><path d="M254.89,127.52c1,33.71-28.11,62.25-62,62.32A62.54,62.54,0,0,1,130,127.17c0-35.72,29.66-62.48,63.23-62.4C226.25,64.85,256.16,93.5,254.89,127.52Zm-62.34,54.84c29.31,1.37,53.77-23.51,55.35-51.13,1.94-33.88-24.09-59.43-55.27-59.35-30.78.08-55.64,23.85-55.5,56.63C137.25,156.48,161.29,183.32,192.55,182.36Z"/><path d="M306.75,294.15c-3.68,8.91-9.16,15.63-15.28,22.2-8.06,8.66-17.14,6-26.3,3.94-7.59-1.69-15.1-3.78-22.56-6-6-1.75-9.61-6.39-9.72-11.56-.16-8,2.2-12.79,8.91-14.53,3.8-1,8.43-.27,12.31.9,13.91,4.18,28,7,42.55,6.19C299.87,295.14,303,294.59,306.75,294.15Z"/><path d="M248.85,282.91c-3.93,1.1-7.2,2.25-10.57,2.83a4.87,4.87,0,0,1-3.9-1.58c-8.65-11.29-17.11-22.73-25.69-34.07-1.86-2.45-2.06-4.36,1-5.84a7.48,7.48,0,0,0,1.21-.86c7.56-5.75,7.62-5.79,13,2.11q11.62,17,23.09,34.11C247.75,280.67,248.28,281.87,248.85,282.91Z"/><path d="M142.89,127.13c-.66-26.55,22.48-50.36,50.16-49.7,28.61.68,49.43,21.71,49.48,49.83,0,27.42-20.25,49.82-50.38,49.94C165.2,177.31,142.25,154.64,142.89,127.13ZM224.18,104c-.53-.82-.93-2-1.38-2a4.5,4.5,0,0,0-2.83.89c-7.63,6.19-15.19,12.47-22.79,18.7-1.91,1.57-3.53,2.25-5.81-.07-5.43-5.53-11.16-10.78-16.95-15.94-1-.9-2.91-.81-4.41-1.18-.14,1.72-1.08,4.22-.28,5,6.53,6.83,13.31,13.43,20.19,19.91,2.41,2.27,4.71,3.15,6.38-1.39.82-2.22,3.49-3.87,5.53-5.51,6.89-5.52,13.89-10.92,20.82-16.4A10.62,10.62,0,0,0,224.18,104ZM195.89,92.85c0-2.16-.13-4.34,0-6.48.19-2.46-.84-3.23-3.17-3-1.94.16-4.07-.47-3.91,2.82.21,4.15.13,8.32,0,12.47-.08,2.83,1.2,3.68,3.9,3.81,2.93.15,3.27-1.29,3.15-3.59C195.8,96.85,195.89,94.85,195.89,92.85Zm0,69c0-2-.07-4,0-6,.1-2.22-.08-3.81-3.09-3.63-2.66.15-4,.88-4,3.76.12,3.82.12,7.66,0,11.48-.09,2.47.14,3.92,3.35,4s4-1.25,3.72-4.09C195.75,165.57,195.89,163.73,195.89,161.9Zm31.17-31.55a38.7,38.7,0,0,0,7-.13,4.47,4.47,0,0,0,2.76-2.7c.66-2.12-.27-3.32-2.83-3.22-4.31.18-8.64.15-13,0-2.34-.08-3.16.65-3.18,3.08s1,3.13,3.26,3C223.07,130.24,225.07,130.35,227.06,130.34Zm-78.25,0c4.77,0,9.76.17,14.72-.13a4.64,4.64,0,0,0,3.23-2.7c.86-2.66-.86-3.35-3.31-3.2a50.94,50.94,0,0,1-8.48,0C150.69,123.82,147.74,124.52,148.81,130.35Z"/></svg>