<svg xmlns="http://www.w3.org/2000/svg" xmlns:xlink="http://www.w3.org/1999/xlink" viewBox="0 0 87.98 88"><defs><style>.cls-1{fill:none;}.cls-2{clip-path:url(#clip-path);}.cls-3{fill:#f4a56b;}.cls-4{fill:#21150c;}.cls-5{fill:#20150c;}.cls-6{fill:#fff;}.cls-7{fill:#f9d68f;}.cls-8{fill:#fdf1d9;}.cls-9{fill:#f199ab;}.cls-10{fill:#9fd7e7;}</style><clipPath id="clip-path" transform="translate(-0.11 -3.58)"><circle class="cls-1" cx="44" cy="44" r="44"/></clipPath></defs><g id="圖層_2" data-name="圖層 2"><g id="圖層_1-2" data-name="圖層 1"><g class="cls-2"><path class="cls-3" d="M86.89,91.58H1.32a1.4,1.4,0,0,1-1.21-1.2V42.59A8.52,8.52,0,0,1,1,39.75a7.81,7.81,0,0,1,5.91-3.52,2.33,2.33,0,0,0,1.65-.78,9.6,9.6,0,0,1,1.36-1.18,5.18,5.18,0,0,1,6.3.06c1,.76,1.1.76,2.07,0a4.67,4.67,0,0,1,2.92-1.08c.89,0,1-.12.74-.95a22.53,22.53,0,0,1,1.65-16.44A22.52,22.52,0,0,1,38.07,4a36.5,36.5,0,0,1,3.8-.44h4.47a13.81,13.81,0,0,0,2,.19,17.44,17.44,0,0,1,7.81,2.86A22.55,22.55,0,0,1,64.74,16,22.93,22.93,0,0,1,67,24.4a23.55,23.55,0,0,1-.77,8c-.15.61-.1.95.63.89a4.45,4.45,0,0,1,3.28,1.25,1.08,1.08,0,0,0,1.61,0,5.29,5.29,0,0,1,7.36.37,4.23,4.23,0,0,0,2.72,1.39,7.53,7.53,0,0,1,5.4,3.45c.68,1,.6,2.11.84,3.18V90.38A1.4,1.4,0,0,1,86.89,91.58Z" transform="translate(-0.11 -3.58)"/><path class="cls-4" d="M.11,90.38a4.76,4.76,0,0,0,1.21,1.2C.11,91.58.11,91.58.11,90.38Z" transform="translate(-0.11 -3.58)"/><path class="cls-5" d="M86.89,91.58a4.76,4.76,0,0,0,1.21-1.2C88.1,91.58,88.1,91.58,86.89,91.58Z" transform="translate(-0.11 -3.58)"/><path class="cls-6" d="M3.56,75.08V54.28c.52-1.14,1.67-1.16,2.63-1.34a8.6,8.6,0,0,1,8,2.44,8.21,8.21,0,0,0,11.48,0,8.93,8.93,0,0,1,11.42-1,15.25,15.25,0,0,1,1.63,1.38,8.07,8.07,0,0,0,10.56.12A11.08,11.08,0,0,1,54.22,53a8.7,8.7,0,0,1,8.09,2.23,8.3,8.3,0,0,0,10,1.44A23.92,23.92,0,0,0,75,54.56a8.8,8.8,0,0,1,8.77-1.15,1.48,1.48,0,0,1,.89.86q0,10.41,0,20.81a.83.83,0,0,1-.94.23A44.46,44.46,0,0,0,77.35,74a2,2,0,0,1-.8-.3,1.12,1.12,0,0,1-.32-.77,11.35,11.35,0,0,1,.56-4.9,15.44,15.44,0,0,0,1-4.75,1.43,1.43,0,0,0-1.18-1.63c-.75-.1-1.27.32-1.43,1.23a14.58,14.58,0,0,1-.83,3.92c-.2.42-.3.93-.87.94s-.86-.42-1.09-.86a4.71,4.71,0,0,1-.36-1.23c-.18-.88-.69-1.31-1.45-1.22a1.36,1.36,0,0,0-1.13,1.64A6.66,6.66,0,0,0,71.42,70c.43.45.91.87,1.31,1.35a1.91,1.91,0,0,1,.34,2.26,1.63,1.63,0,0,1-1,.17,39.65,39.65,0,0,0-7.13.65,2.3,2.3,0,0,1-1.35,0,1,1,0,0,1-.45-1,8.57,8.57,0,0,0-1.27-4,5.11,5.11,0,0,1-.81-2.5,1.86,1.86,0,0,0-.24-.9,1.21,1.21,0,0,0-1.33-.72,1.17,1.17,0,0,0-1.06,1.16,7.25,7.25,0,0,0,1.16,4.31,5.19,5.19,0,0,1,.65,4.34,1.63,1.63,0,0,1-.93.57,45.47,45.47,0,0,1-10.91,2.56A2,2,0,0,1,47,78.18a.78.78,0,0,1-.26-.43,5.94,5.94,0,0,1,2-6.32,6.73,6.73,0,0,0,2.8-4.55A1.37,1.37,0,0,0,50,65.21,1.31,1.31,0,0,0,49,66.48a3.91,3.91,0,0,1-1.53,2.59c-.54.43-1.05.4-1.29-.16-.51-1.15-1.29-2.16-1.7-3.36a7.42,7.42,0,0,1-.38-1.93c-.07-.94-.59-1.51-1.33-1.5s-1.32.63-1.3,1.61a9.06,9.06,0,0,0,1.43,4.62,7.48,7.48,0,0,1,1.13,4c0,1.57,0,3.15,0,4.72a1.66,1.66,0,0,1-.35,1.29,2.12,2.12,0,0,1-1.42.19,45.39,45.39,0,0,1-10.53-1.83,2.82,2.82,0,0,1-1.24-.57,6.32,6.32,0,0,1,.65-5.42,9.35,9.35,0,0,0,1.06-3,2.91,2.91,0,0,0,0-1.28,1.28,1.28,0,0,0-1.27-1.08,1.13,1.13,0,0,0-1.21,1c-.1,1.73-1,3.12-1.7,4.63a6.74,6.74,0,0,0-.48,2.6c0,.45.07.93-.35,1.27a1.09,1.09,0,0,1-.9.11,54.76,54.76,0,0,0-8.16-1.28,1,1,0,0,1-.56-.17c-.46-.45-.27-1-.09-1.44a5.19,5.19,0,0,1,1.43-1.9A5.73,5.73,0,0,0,21,66c0-.93-.39-1.47-1.12-1.54s-1.27.32-1.46,1.25a3.93,3.93,0,0,1-.56,1.6c-.57.76-1.26.67-1.61-.2A14.5,14.5,0,0,1,15.34,63a1.34,1.34,0,0,0-1.25-1.3A1.42,1.42,0,0,0,12.74,63a1.82,1.82,0,0,0,0,.52,14.78,14.78,0,0,0,.94,4.25,10.83,10.83,0,0,1,.74,4.87,1.33,1.33,0,0,1-.34,1,11.17,11.17,0,0,1-3.19.49,47,47,0,0,0-6.12,1.21C4.33,75.37,3.91,75.49,3.56,75.08Z" transform="translate(-0.11 -3.58)"/><path class="cls-7" d="M17.49,73.33A52.32,52.32,0,0,1,27,74.76a4.21,4.21,0,0,1,3.46,1.13,41,41,0,0,0,13.07,2.24A4.44,4.44,0,0,1,47,78a39.05,39.05,0,0,0,10.81-2.13c.76-.25,1.51-.53,2.26-.8a3.94,3.94,0,0,1,3.45-.87,48.56,48.56,0,0,1,9.55-.87,3.53,3.53,0,0,1,3.48.18A46.35,46.35,0,0,1,84.14,75a2.15,2.15,0,0,0,.51,0q0,6.11,0,12.21c0,.61-.17.93-.83.85-.2,0-.4,0-.6,0H5c-1.42,0-1.42,0-1.42-1.45,0-3.87,0-7.74,0-11.61l4-.91A48.36,48.36,0,0,1,14,73.34,4,4,0,0,1,17.49,73.33Z" transform="translate(-0.11 -3.58)"/><path class="cls-8" d="M57.71,39.67a17.9,17.9,0,0,1-10.35,5.47A19.1,19.1,0,0,1,25.31,30a18.36,18.36,0,0,1,4-16c.6-.13.8.36,1.05.72.82,1.13,1.63,2.28,2.45,3.41a2,2,0,0,0,1.23.86c.77.17.92.56.51,1.25a22.2,22.2,0,0,1-1.33,1.89c-1,1.35-1,1.88,0,3.22.47.61.9,1.25,1.37,1.86.63.82,1.38,1,2,.55s.7-1.28.1-2.12c-1.33-1.87-1.34-1.87,0-3.79.47-.68,1-1.34,1.45-2A2,2,0,0,1,39.89,19a11.6,11.6,0,0,1,6.32,1.18,5.12,5.12,0,0,0,1.14.39,1.29,1.29,0,0,0,1.58-.67,1.34,1.34,0,0,0-.69-1.74c-.61-.3-1.27-.5-1.9-.8a1.18,1.18,0,0,1-.77-1.58,17.07,17.07,0,0,1,.49-1.73,3.63,3.63,0,0,0,.22-.92,1.29,1.29,0,0,0-2.5-.61,19,19,0,0,0-.68,2.22c-.39,1.42-.6,1.59-2.08,1.59H35.78a1.81,1.81,0,0,1-1.65-.88c-.64-1-1.37-1.9-2-2.88-.22-.33-.47-.66-.23-1.1A18.35,18.35,0,0,1,46.15,7.16,19,19,0,0,1,62.9,22.36a18.47,18.47,0,0,1-2.81,14.43c-.5.32-1,.06-1.47,0-1.81-.38-2.49-1.49-2.37-3.27A2.25,2.25,0,0,0,55,31.28a12.27,12.27,0,0,1-1.35-.91,1.16,1.16,0,0,1-.32-1.84c.32-.51.71-1,1-1.49a1.34,1.34,0,0,0-.29-1.89,1.39,1.39,0,0,0-1.88.43c-.38.51-.73,1-1.12,1.52a1.12,1.12,0,0,1-1.77.31c-.22-.14-.4-.32-.63-.45a1.34,1.34,0,1,0-1.47,2.21c.69.51,1.42,1,2.13,1.44a15.58,15.58,0,0,1,1.48,1c.59.51.55,1.1-.15,1.43-1.37.64-2.76,1.24-4.18,1.78a1.52,1.52,0,0,1-1.6-.29,15.68,15.68,0,0,0-1.85-1.39,1.3,1.3,0,0,0-1.77.25,1.43,1.43,0,0,0,.23,1.8c.37.36.79.66,1.17,1a.92.92,0,0,1,.09,1.43c-.3.35-.66.64-1,1a1.29,1.29,0,0,0-.07,1.79,1.43,1.43,0,0,0,1.81.12,2.85,2.85,0,0,0,.57-.52,10.7,10.7,0,0,1,4.8-3.31c1.14-.39,2.21-.95,3.32-1.39s1.44-.16,1.49.88a2.06,2.06,0,0,0,1.6,2.14c.54.16,1.08.39,1.61.59C57.32,39.08,57.65,39.23,57.71,39.67Z" transform="translate(-0.11 -3.58)"/><path class="cls-9" d="M84.63,54.27a8.53,8.53,0,0,0-10.42,1.46,8.53,8.53,0,0,1-11.88,0c-3.74-3.44-8.34-3.49-12.12-.13s-8.3,3.5-12.05.06a8.82,8.82,0,0,0-10.53-1.3,11.07,11.07,0,0,0-1.75,1.38,8.52,8.52,0,0,1-11.81,0,8.56,8.56,0,0,0-10.5-1.49c0-3,0-6.07,0-9.11.37-.49.92-.39,1.42-.39,3.54,0,7.08,0,10.62,0H29.33a5.44,5.44,0,0,1,2.26.38,24.27,24.27,0,0,0,8.05,3.27,22.48,22.48,0,0,0,16.08-2.78l.9-.49a5.49,5.49,0,0,1,2.09-.38H83c.58,0,1.22-.16,1.68.39Z" transform="translate(-0.11 -3.58)"/><path class="cls-8" d="M31.59,45.15l-19.7,0H3.58a6.58,6.58,0,0,1,.15-2.38A3.81,3.81,0,0,1,7.21,40a5.46,5.46,0,0,0,4.08-1.88c.21-.23.44-.45.67-.67a1.29,1.29,0,0,1,1.92-.06,4.8,4.8,0,0,0,6.61,0,1.31,1.31,0,0,1,2,.14A7,7,0,0,0,26,39.93a.65.65,0,0,1,.33.24A27.56,27.56,0,0,0,31.59,45.15Z" transform="translate(-0.11 -3.58)"/><path class="cls-8" d="M84.63,45.17l-28,0a27.2,27.2,0,0,0,5.3-5,.71.71,0,0,1,.34-.24,7,7,0,0,0,3.42-2.34,1.35,1.35,0,0,1,2.11-.1,4.66,4.66,0,0,0,6.47,0,1.36,1.36,0,0,1,2,.08,10.58,10.58,0,0,0,2.21,1.9,4.66,4.66,0,0,0,2,.56c2.79.17,4.19,1.67,4.18,4.47C84.66,44.71,84.64,44.94,84.63,45.17Z" transform="translate(-0.11 -3.58)"/><path class="cls-7" d="M57.71,39.67c-.86-.32-1.69-.71-2.57-1a2.24,2.24,0,0,1-1.76-2.41c0-1,0-1-1-.61-1.42.61-2.82,1.3-4.28,1.79-1.67.57-2.72,1.85-3.89,3a2,2,0,0,1-1.57.76,1.61,1.61,0,0,1-1.51-.95,1.55,1.55,0,0,1,.23-1.77,13.85,13.85,0,0,1,1.14-1.16c.31-.3.37-.54,0-.82a11,11,0,0,1-1.14-.9,1.84,1.84,0,0,1-.42-2.46,1.67,1.67,0,0,1,2.44-.28,22.77,22.77,0,0,1,1.82,1.42,1.07,1.07,0,0,0,1.26.18c1.35-.62,2.73-1.19,4.1-1.76.55-.22.61-.44.08-.78-1.19-.79-2.38-1.59-3.56-2.4s-1.31-1.67-.71-2.56a1.76,1.76,0,0,1,2.64-.3c1.29.84,1.29.84,2.22-.42.26-.35.49-.71.75-1.05a1.8,1.8,0,0,1,2.39-.41,1.72,1.72,0,0,1,.42,2.36,15.25,15.25,0,0,1-1.09,1.54c-.48.57-.47,1,.21,1.35s1,.68,1.51,1a2.27,2.27,0,0,1,1.2,2.22c-.14,1.71.4,2.86,2.24,3.14a7.92,7.92,0,0,1,1.23.38A11.58,11.58,0,0,1,57.71,39.67Z" transform="translate(-0.11 -3.58)"/><path class="cls-7" d="M31.87,11.48l2.88,4.16a.8.8,0,0,0,.74.33c2.06,0,4.12,0,6.18,0a.76.76,0,0,0,.85-.66c.26-.93.52-1.87.82-2.8a1.72,1.72,0,1,1,3.31.87,25.56,25.56,0,0,1-.74,2.55c-.17.54-.06.87.51,1s1.29.48,1.91.76A1.7,1.7,0,1,1,47.16,21,6.28,6.28,0,0,1,46,20.53a12,12,0,0,0-6.42-1.13,1.23,1.23,0,0,0-1.07.56c-.78,1.14-1.58,2.25-2.39,3.36a.68.68,0,0,0,0,.93c.36.47.72,1,1.06,1.45a1.77,1.77,0,0,1-.3,2.4,1.59,1.59,0,0,1-2.31-.23,39.84,39.84,0,0,1-2.37-3.26,1.7,1.7,0,0,1,.16-1.94c.6-.87,1.22-1.73,1.83-2.59.25-.36.46-.67-.25-.68a1.72,1.72,0,0,1-1.41-.85Q31,16.28,29.32,14A11.26,11.26,0,0,1,31.87,11.48Z" transform="translate(-0.11 -3.58)"/><path class="cls-9" d="M47,78a14.23,14.23,0,0,1-3.45.13c0-1.95,0-3.89,0-5.84a6.74,6.74,0,0,0-1-3.67,9.36,9.36,0,0,1-1.52-5,1.72,1.72,0,1,1,3.42-.12,6.52,6.52,0,0,0,1,3.32,9.49,9.49,0,0,1,.94,1.92c.13.38.28.44.6.18a3.78,3.78,0,0,0,1.54-2.48,1.68,1.68,0,0,1,2-1.65A1.77,1.77,0,0,1,52,66.86a6.44,6.44,0,0,1-2.69,4.62,5.23,5.23,0,0,0-2.27,5C47.05,77,47,77.48,47,78Z" transform="translate(-0.11 -3.58)"/><path class="cls-9" d="M76.57,73.51l-3.48-.18a4.34,4.34,0,0,0-1.58-2.77,6.71,6.71,0,0,1-2.39-4.23A1.82,1.82,0,0,1,70.5,64c1.07-.18,1.81.44,2,1.69a3,3,0,0,0,.64,1.57c.27.31.48.5.69-.07a10.78,10.78,0,0,0,.89-3.56,4.9,4.9,0,0,1,.07-.77,1.73,1.73,0,0,1,1.8-1.68,1.79,1.79,0,0,1,1.64,2c-.07.89-.21,1.76-.34,2.64A4.36,4.36,0,0,1,77.6,67,13.71,13.71,0,0,0,76.57,73.51Z" transform="translate(-0.11 -3.58)"/><path class="cls-9" d="M17.49,73.33H14a13.91,13.91,0,0,0-1-6.21,10.47,10.47,0,0,1-.7-4,1.79,1.79,0,0,1,1.72-2,1.75,1.75,0,0,1,1.71,1.87,11.89,11.89,0,0,0,.91,4c.08.2.07.53.35.53s.35-.25.49-.43a3.44,3.44,0,0,0,.55-1.61,1.7,1.7,0,0,1,2.63-1.28,1.68,1.68,0,0,1,.76,1.54,6.22,6.22,0,0,1-2.34,4.69A4.47,4.47,0,0,0,17.49,73.33Z" transform="translate(-0.11 -3.58)"/><path class="cls-10" d="M30.5,75.89,27,74.76a9.83,9.83,0,0,1,1.57-6,4.36,4.36,0,0,0,.55-2,1.72,1.72,0,1,1,3.43.1,5.82,5.82,0,0,1-.79,3.3A9.09,9.09,0,0,0,30.5,75.89Z" transform="translate(-0.11 -3.58)"/><path class="cls-10" d="M63.54,74.2l-3.45.87A7.23,7.23,0,0,0,59,70.58a6.61,6.61,0,0,1-1-3.94A1.66,1.66,0,0,1,59.52,65a1.6,1.6,0,0,1,1.82,1.34,11,11,0,0,0,1.51,4.24A7.57,7.57,0,0,1,63.54,74.2Z" transform="translate(-0.11 -3.58)"/></g></g></g></svg>