<svg xmlns="http://www.w3.org/2000/svg" xmlns:xlink="http://www.w3.org/1999/xlink" viewBox="0 0 88 78.3"><defs><style>.cls-1{fill:none;}.cls-2{clip-path:url(#clip-path);}.cls-3{fill:#eaeaea;}.cls-4{fill:#4c241d;}.cls-5{fill:#ec6c45;}.cls-6{fill:#4b241c;}.cls-7{fill:#f9e794;}.cls-8{fill:#f9e694;}.cls-9{fill:#694f5a;}.cls-10{fill:#694e59;}.cls-11{fill:#5f3f44;}.cls-12{fill:#553231;}.cls-13{fill:#050000;}.cls-14{fill:#4d251e;}.cls-15{fill:#4d261e;}</style><clipPath id="clip-path" transform="translate(1.22 -7.66)"><circle class="cls-1" cx="44" cy="44" r="44"/></clipPath></defs><g id="圖層_2" data-name="圖層 2"><g id="圖層_1-2" data-name="圖層 1"><g class="cls-2"><path class="cls-3" d="M15.66,23.38A29.72,29.72,0,0,1,29.17,11.43c11.28-5,22.11-4,32.34,3a5.26,5.26,0,0,0,.47.27,3.88,3.88,0,0,1,2.14,1.74A32.86,32.86,0,0,1,71.86,27c4.77,10.91,3.89,21.39-2.49,31.42-.13.21-.26.43-.4.64-1.15.72-2.38.38-3.59.24-.3,0-.48-.31-.57-.61a2.35,2.35,0,0,1-.11-.75C64.61,51,64.62,44.08,66,37.24c.62-3.05,1.43-6,3.46-8.51.45-.54.66-1.19,0-1.74s-1.17-.14-1.64.28a16.43,16.43,0,0,0-4.17,6.34A65.29,65.29,0,0,0,60,47.08c-.65,3.59-1.13,7.2-1.52,10.82-.14,1.29-.37,1.5-1.65,1.53s-2.84,0-4.26,0c-1.06-.05-1.4-.34-1.4-1.4,0-2.54-.07-5.09.09-7.64.18-2.83.24-5.67.54-8.5a55.7,55.7,0,0,1,1.6-9.14,15.08,15.08,0,0,1,2.55-5.4c.09-.11.17-.24.25-.36a1,1,0,0,0,0-1.39,1.08,1.08,0,0,0-1.49,0A10.64,10.64,0,0,0,51.9,29,34.57,34.57,0,0,0,49,36.38a131.28,131.28,0,0,0-3.65,20.74,9.45,9.45,0,0,1-.16,1.19,1.27,1.27,0,0,1-1.31,1.1c-1.45,0-2.91,0-4.37,0a1.24,1.24,0,0,1-1.3-1.08A6.4,6.4,0,0,1,38,57.25c-.3-5.64-.4-11.29-.19-16.92a59.36,59.36,0,0,1,1.92-14.7,15.21,15.21,0,0,1,2.77-5.77c.46-.53.71-1.2.11-1.76s-1.25-.19-1.76.25A15.54,15.54,0,0,0,37,24.1a63.33,63.33,0,0,0-3.87,14,166.44,166.44,0,0,0-2.25,19.41c-.08,1.54-.47,1.92-2,1.94-1,0-2,0-3.06,0-.81,0-1.32-.39-1.34-1.25-.13-5.66-.07-11.3,1.79-16.75a15.9,15.9,0,0,1,2.51-4.7,7,7,0,0,0,.45-.62c.34-.53.53-1.08,0-1.58s-1.08-.25-1.59.09a10.48,10.48,0,0,0-2.22,2.09A29.77,29.77,0,0,0,20,47.48a64.36,64.36,0,0,0-2.1,9.71,7.34,7.34,0,0,1-.25,1.4c-.19.57-.52.9-1.14.45a32.8,32.8,0,0,1-5.4-13,31,31,0,0,1,.64-13.81c.4-.52,1-.35,1.5-.38.66,0,1.29-.17,1.37-.94s-.46-1.05-1.11-1.21c-.33-.08-.75-.06-.81-.55A45.28,45.28,0,0,1,15,24.27c.6.11.52.61.55,1,.07.72,0,1.45,0,2.17s.3,1.27,1,1.29,1-.58,1-1.27,0-1.45,0-2.17c0-.89-.3-1.47-1.27-1.54A1,1,0,0,1,15.66,23.38Z" transform="translate(1.22 -7.66)"/><path class="cls-4" d="M16.55,59c.8.24.77-.29.85-.83.83-5.78,2-11.46,4.55-16.77a19.06,19.06,0,0,1,5.59-7.29,1.44,1.44,0,0,1,2.07.05,1.34,1.34,0,0,1,0,2c-2.49,2.72-3.47,6.1-4.13,9.59a61.71,61.71,0,0,0-.69,12.52c0,.66.29.78.86.77,1.24,0,2.48-.06,3.72,0,.77,0,1-.25,1-1,.18-3.64.51-7.27,1-10.88,1-7.73,2.06-15.43,5-22.72a18.13,18.13,0,0,1,3.53-5.85,12.36,12.36,0,0,1,1.14-1,1.37,1.37,0,0,1,2,.07,1.36,1.36,0,0,1,.11,2c-2.53,2.83-3.27,6.35-3.88,9.91-1.37,8.09-1.26,16.25-1,24.41,0,1.31.16,2.62.17,3.93,0,.86.25,1.21,1.19,1.14a30.26,30.26,0,0,1,4,0c.88.06,1.1-.3,1.17-1.07q.61-6.69,1.82-13.3a60,60,0,0,1,4.16-14.63,13.68,13.68,0,0,1,3.56-4.92,1.41,1.41,0,0,1,2.06,0,1.32,1.32,0,0,1,.11,2c-2.21,2.48-2.94,5.56-3.53,8.67-1.41,7.41-1.53,14.91-1.55,22.42,0,.7.23.86.88.84,1.53,0,3.06-.06,4.59,0,.82,0,1-.25,1.1-1a106.56,106.56,0,0,1,4.15-21.82A25.06,25.06,0,0,1,66,28.59a9.08,9.08,0,0,1,2.09-2.06,1.34,1.34,0,0,1,1.87.26,1.28,1.28,0,0,1,.12,1.79C67,32.2,66.38,36.71,65.76,41.17A116.48,116.48,0,0,0,65,58.08c0,.91.31,1.11,1.11,1,1-.07,1.9,0,2.84-.08,2.74,0,5.47,0,8.2,0a9.57,9.57,0,0,1,9,5.64,5.22,5.22,0,0,1-2,7,3,3,0,0,0-.32.3,3.73,3.73,0,0,1-2.5.56c-3.09,0-6.19,0-9.28,0a10.26,10.26,0,0,0-2.7.35A42.53,42.53,0,0,1,59,74.33a25.32,25.32,0,0,1-3.59.18,2.14,2.14,0,0,1-2.2-1.86c.29-1.46.88-1.93,2.52-2a66.09,66.09,0,0,0,10.22-.88,6.09,6.09,0,0,0,.85-.17c3.28-1.18,6.68-.93,10.06-.93,1.6,0,3.21-.06,4.8,0a1.61,1.61,0,0,0,1.54-2.39,6.23,6.23,0,0,0-5.54-3.8c-6.23,0-12.45,0-18.68,0H53.06c-.69,0-1,.25-1,1,0,3,.18,6,.36,9.05.07,2,.35,4,.31,6-.05,3-1.89,5-4.74,5a4.78,4.78,0,0,1-4.93-5c.07-2,0-4,.22-6q.26-4.47.59-8.93c.07-.84-.24-1.15-1-1.08H8.12A6,6,0,0,0,2.51,66c-.85,1.6-.22,2.74,1.56,2.64a25.92,25.92,0,0,1,6.56.94,57.86,57.86,0,0,0,16,.88,44.14,44.14,0,0,1,8.6.11c1.63.19,3.28,0,4.92.09,1.41.06,1.93.54,2.2,1.93a2.08,2.08,0,0,1-1.89,1.82,7.84,7.84,0,0,1-2.51.09c-2-.22-3.92-.15-5.87-.35a36.05,36.05,0,0,0-7,.25,63.23,63.23,0,0,1-8.82-.2A44.39,44.39,0,0,1,6.91,72.7,13.71,13.71,0,0,0,4,72.58,3.54,3.54,0,0,1,1.69,72,5.62,5.62,0,0,1-1,68.74a5.49,5.49,0,0,1,.26-3.83,9.65,9.65,0,0,1,9.09-5.84C11.09,59,13.82,59.05,16.55,59Z" transform="translate(1.22 -7.66)"/><path class="cls-5" d="M43.66,72.57c-.06,1.85-.1,3.71-.18,5.56a4.58,4.58,0,0,0,3.85,5,4.4,4.4,0,0,0,5.12-4.67c-.07-1.71-.21-3.41-.31-5.12,0-.25,0-.5,0-.76a.92.92,0,0,1,1.32,0,1.76,1.76,0,0,0,2,1.52c5-.17,10-.36,14.79-1.85a2.85,2.85,0,0,1,.86-.13L83.83,72c0,3,0,5.9,0,8.85C83.8,84.11,82,86,78.73,86H6.79c-3.23,0-5.07-1.85-5.08-5.09,0-3,0-5.9,0-8.85a38.86,38.86,0,0,1,9,1.07,64.63,64.63,0,0,0,18.16.68c2.56-.23,5.08.28,7.63.26,1.17,0,2.33,0,3.5,0a1.85,1.85,0,0,0,2.08-1.52A1.14,1.14,0,0,1,43.66,72.57Z" transform="translate(1.22 -7.66)"/><path class="cls-4" d="M64.12,16.43A10.26,10.26,0,0,1,62,14.69c.14-.84-.46-1.53-.44-2.38a4.64,4.64,0,0,1,4.63-4.65,4.57,4.57,0,1,1-1.31,9A6.14,6.14,0,0,0,64.12,16.43Z" transform="translate(1.22 -7.66)"/><path class="cls-4" d="M15.66,23.38c.33,0,.65-.06,1-.05a1.33,1.33,0,0,1,1.44,1.33c.06,1.05,0,2.11,0,3.16a1.34,1.34,0,0,1-1.47,1.42,1.4,1.4,0,0,1-1.44-1.46c-.1-1.17.22-2.36-.17-3.51Z" transform="translate(1.22 -7.66)"/><path class="cls-4" d="M12.74,29.11c.25.31.6.16.91.17a1.47,1.47,0,1,1,0,2.94c-.61,0-1.22,0-1.84,0l-1.08,0a1.27,1.27,0,0,1-1.41-1.3c-.09-1,.45-1.4,1.31-1.54C11.31,29.21,12.06,29.48,12.74,29.11Z" transform="translate(1.22 -7.66)"/><path class="cls-6" d="M.33,27.76a1.38,1.38,0,0,1,1.42-1.48,1.63,1.63,0,0,1,1.4,1.56,1.51,1.51,0,0,1-1.42,1.42A1.43,1.43,0,0,1,.33,27.76Z" transform="translate(1.22 -7.66)"/><path class="cls-4" d="M21.13,32.19a16.82,16.82,0,0,1-1.74,0,1.32,1.32,0,0,1-1.24-1.41,1.33,1.33,0,0,1,1.31-1.46,32.42,32.42,0,0,1,3.27,0,1.34,1.34,0,0,1,1.35,1.43,1.36,1.36,0,0,1-1.32,1.46c-.54,0-1.09,0-1.63,0Z" transform="translate(1.22 -7.66)"/><path class="cls-4" d="M18.08,35.23c0,.54,0,1.09,0,1.63a1.34,1.34,0,0,1-1.44,1.34,1.33,1.33,0,0,1-1.45-1.32q-.07-1.64,0-3.27a1.31,1.31,0,0,1,1.44-1.32,1.32,1.32,0,0,1,1.45,1.31C18.12,34.14,18.08,34.69,18.08,35.23Z" transform="translate(1.22 -7.66)"/><path class="cls-7" d="M43.66,72.57H42.1A1.83,1.83,0,0,0,40,71.05a84.83,84.83,0,0,1-8.73-.35,42.26,42.26,0,0,0-4.89.25,57.27,57.27,0,0,1-17-1.24,22.05,22.05,0,0,0-5.7-.63,1.75,1.75,0,0,1-1.83-2.37,6.5,6.5,0,0,1,5.67-4.58q18.13,0,36.27,0c.37,0,.8-.14.74.56-.24,3.16-.44,6.32-.67,9.48A2.12,2.12,0,0,1,43.66,72.57Z" transform="translate(1.22 -7.66)"/><path class="cls-8" d="M53.46,72.57H52.14c-.33-1.65-.19-3.33-.36-5-.08-.8-.05-1.6-.07-2.4,0-1-.43-2.29,0-2.85s1.91-.21,2.92-.22H77.51a6.6,6.6,0,0,1,6.12,4.16,1.89,1.89,0,0,1-1.9,2.82H77.14a39.73,39.73,0,0,0-10.79,1,40.16,40.16,0,0,1-10.85,1A1.8,1.8,0,0,0,53.46,72.57Z" transform="translate(1.22 -7.66)"/><path class="cls-9" d="M48.61,53.07c-.39,4.57,0,9,.13,13.36.09,4,.28,8,.75,11.94A1.6,1.6,0,0,1,48,80.21a1.54,1.54,0,0,1-1.53-1.65c.07-2.39.22-4.78.34-7.18.09-1.52.19-3,.29-4.56.24-3.77.56-7.53,1-11.27A7.35,7.35,0,0,1,48.61,53.07Z" transform="translate(1.22 -7.66)"/><path class="cls-10" d="M35.07,43.13a7.87,7.87,0,0,1,0,.84c0,4.54.08,9.09.4,13.62,0,.56.48,1.47-.78,1.49S33.26,59,33.4,57.6c.37-3.61.69-7.22,1.06-10.83.12-1.22.33-2.43.5-3.64Z" transform="translate(1.22 -7.66)"/><path class="cls-9" d="M21.78,52.94c0,1.85,0,3.7.08,5.54,0,.7-.37.57-.74.58s-.78.08-.71-.59c.22-2.24.74-4.42,1.15-6.62C22.12,52.12,21.84,52.55,21.78,52.94Z" transform="translate(1.22 -7.66)"/><path class="cls-10" d="M62,52.05q0,3.06,0,6.12c0,.44.07,1-.62.87s-.33-.57-.29-.92q.34-3.13.7-6.27C62,51.78,62.09,51.83,62,52.05Z" transform="translate(1.22 -7.66)"/><path class="cls-11" d="M21.78,52.94c-.08-.36.12-.78-.22-1.09l.27-1.08A3.35,3.35,0,0,1,21.78,52.94Z" transform="translate(1.22 -7.66)"/><path class="cls-12" d="M62,52.05l-.22-.2c0-.39-.08-.8.36-1.14C62.24,51.21,62.35,51.64,62,52.05Z" transform="translate(1.22 -7.66)"/><path class="cls-13" d="M67.69,12.27A1.45,1.45,0,0,1,66,13.79a1.68,1.68,0,0,1-1.56-1.51,2,2,0,0,1,1.66-1.73A1.64,1.64,0,0,1,67.69,12.27Z" transform="translate(1.22 -7.66)"/><path class="cls-14" d="M21.11,66.57a1.46,1.46,0,0,1-1.52,1.48,1.46,1.46,0,0,1,0-2.92A1.45,1.45,0,0,1,21.11,66.57Z" transform="translate(1.22 -7.66)"/><path class="cls-15" d="M40.53,63.63A1.46,1.46,0,0,1,42,65.05a1.44,1.44,0,0,1-1.49,1.5,1.38,1.38,0,0,1-1.46-1.42A1.42,1.42,0,0,1,40.53,63.63Z" transform="translate(1.22 -7.66)"/><path class="cls-14" d="M34.53,69.56A1.48,1.48,0,1,1,36,68.05,1.43,1.43,0,0,1,34.53,69.56Z" transform="translate(1.22 -7.66)"/><path class="cls-15" d="M77.85,63.63a1.46,1.46,0,1,1-1.46,1.43A1.41,1.41,0,0,1,77.85,63.63Z" transform="translate(1.22 -7.66)"/><path class="cls-15" d="M58.39,66.61A1.47,1.47,0,1,1,57,68.07,1.45,1.45,0,0,1,58.39,66.61Z" transform="translate(1.22 -7.66)"/></g></g></g></svg>