<svg xmlns="http://www.w3.org/2000/svg" xmlns:xlink="http://www.w3.org/1999/xlink" viewBox="0 0 88 88"><defs><style>.cls-1{fill:#f6bbad;}.cls-2{clip-path:url(#clip-path);}.cls-3{fill:#161717;}.cls-4{fill:#1e1f1f;}.cls-5{fill:#666767;}.cls-6{fill:#333434;}.cls-7{fill:#797a7a;}.cls-8{fill:#555;}.cls-9{fill:#454545;}.cls-10{fill:#8c8d8c;}.cls-11{fill:#fff;}.cls-12{fill:#b2dcf5;}.cls-13{fill:#fefefe;}.cls-14{fill:#eae2e2;}.cls-15{fill:#c0e4f3;}.cls-16{fill:#fcfdfd;}.cls-17{fill:#fdfdfd;}.cls-18{fill:#f8f7f7;}.cls-19{fill:#d3d2d1;}.cls-20{fill:#f5f4f4;}.cls-21{fill:#969594;}.cls-22{fill:#727171;}.cls-23{fill:#050101;stroke:#040000;stroke-miterlimit:10;stroke-width:0.25px;}.cls-24{fill:#ebe2e2;}.cls-25{fill:#0c0c0c;}.cls-26{fill:#060404;}.cls-27{fill:#0b0b0b;}.cls-28{fill:#1a1b1b;}.cls-29{fill:#1f1f1f;}.cls-30{fill:#f4b0b4;}.cls-31{fill:#f4afb4;}.cls-32{fill:#f9fafa;}.cls-33{fill:#f8f5f5;}.cls-34{fill:#f6f2f2;}.cls-35{fill:#f7f3f3;}.cls-36{fill:#aed6f0;}.cls-37{fill:#181a19;}.cls-38{fill:#1b1d1c;}.cls-39{fill:#1e1e1e;}.cls-40{fill:#fbf9f9;}.cls-41{fill:#b9e2f7;}.cls-42{fill:#bbe3f6;}.cls-43{fill:#bfe4f4;}.cls-44{fill:#bce3f5;}.cls-45{fill:#bce3f6;}.cls-46{fill:#f3eeee;}.cls-47{fill:#f1ecec;}</style><clipPath id="clip-path"><circle class="cls-1" cx="44" cy="44" r="44"/></clipPath></defs><g id="圖層_2" data-name="圖層 2"><g id="圖層_1-2" data-name="圖層 1"><circle class="cls-1" cx="44" cy="44" r="44"/><g class="cls-2"><path class="cls-3" d="M32.94,87.27l.14.34h-9a.4.4,0,0,1,.15-.34,28.09,28.09,0,0,1,4.4-.09A27,27,0,0,1,32.94,87.27Z"/><path class="cls-4" d="M66.63,87.38l0,.23H65a.19.19,0,0,1,.06-.26A1.9,1.9,0,0,1,66.63,87.38Z"/><path class="cls-5" d="M61.24,87.61H59.88a.17.17,0,0,1,0-.25,1.34,1.34,0,0,1,1.26,0A.18.18,0,0,1,61.24,87.61Z"/><path class="cls-6" d="M65,87.47v.14H63.61a.18.18,0,0,1,.07-.26A1.1,1.1,0,0,1,65,87.47Z"/><path class="cls-7" d="M59.88,87.47v.14H58.69a.19.19,0,0,1,.07-.26A.91.91,0,0,1,59.88,87.47Z"/><path class="cls-8" d="M61.24,87.61v-.14a.91.91,0,0,1,1.12-.12.18.18,0,0,1,.06.26Z"/><path class="cls-9" d="M62.42,87.61v-.14a.79.79,0,0,1,1.18,0v.14Z"/><path class="cls-10" d="M58.7,87.47a.66.66,0,0,0,0,.14h-1c0-.1,0-.17.15-.17A.61.61,0,0,1,58.7,87.47Z"/><path class="cls-11" d="M57.57,39.62c0,.49.33.55.67.7a2.83,2.83,0,0,1,1.69,2.87c-.1,1.84-.72,2.83-2,3.28-.58.2-.81.12-.7-.57.2-1.37.34-2.74.49-4.11,0-.23.15-.59-.22-.61s-.28.3-.3.53c-.13,1.09-.25,2.18-.37,3.28,0,.38,0,.81-.63.51-.4-.19-.74.13-1,.38a.64.64,0,0,1-.47.06c-.42-.62.15-.9.49-1.31-.4-.28-.79,0-1.15-.08s-.5,0-.55-.27.19-.32.35-.43a4.52,4.52,0,0,0,.92-.59,23.18,23.18,0,0,0-2.55.46c-.11,0-.05,0-.07,0-.32.91-1.12.91-1.87,1.11-.4.11-.11.51.07.76s.7.34.55.54c-.43.54.21,1.19-.26,1.68s0,.6.33.62.87-.29,1.13,0,.08.87.1,1.31a1.78,1.78,0,0,1,0,.76,5.19,5.19,0,0,1-2.4,5.13c-3.31,2.4-5.14,2.47-8.48.14A5.29,5.29,0,0,1,38.67,51a12,12,0,0,0-.13-2.61c-.12-.63-.34-1.14-1-1.28a.55.55,0,0,1-.34-.22,3.27,3.27,0,0,0-2.83-1.25c-.39,0-.22-.24-.23-.37-.11-1-.18-2-.3-2.94,0-.26.12-.77-.35-.69s-.19.53-.17.81c.1,1.21.19,2.42.35,3.62.08.62-.15.59-.59.44a3.08,3.08,0,0,1-2-3.12,2.86,2.86,0,0,1,1.78-3.05c.35-.14.7-.22.61-.71l.06-.12a7,7,0,0,1,3.9-3.67c1-.37,1.93-.79,2.94-1.08,1.3-.38,2.58-.81,3.87-1.23a1.47,1.47,0,0,1,.9-.12c.41.24.11.41-.07.56a3.92,3.92,0,0,1-1.48.6c-.38.13-.83,0-.42.86s.78.77,1.36.76c1,0,2,.18,2.84-.49a1.66,1.66,0,0,0-.95-.56c-.63-.19-.64-.75-.72-1.17s.47-.51.79-.65a7.22,7.22,0,0,1,2.23-.62c-.53-.1-1.09.35-1.67.05-.13-.44.26-.51.49-.66a7.93,7.93,0,0,0,2.76-2.67c.11-.2.25-.41.52-.35s.28.27.3.47a9.76,9.76,0,0,0,3.53,6,12.47,12.47,0,0,1,2.82,4A.48.48,0,0,1,57.57,39.62Z"/><path class="cls-11" d="M58.7,87.47l-.88,0c.15-.39-.08-.72-.2-1-3.13-8.15-6.27-16.28-9-24.56-.69-2.09-.57-3.71,1.18-5.09a1.62,1.62,0,0,0,.18-.19,7.79,7.79,0,0,0,2.79-6.76A3.38,3.38,0,0,1,52.94,48c.1-.22.25-.4.51-.38s.26.33.27.52c.07,1.53.12,3,.2,4.58a1.48,1.48,0,0,1-.39,1c-.1.13-.12.25,0,.36s.26,0,.36-.07a1.92,1.92,0,0,0,.47-1.48c-.09-1.61-.16-3.22-.24-4.83a1.88,1.88,0,0,1,0-.67.62.62,0,0,1,.59-.41c.34,0,.31.29.31.48a31.6,31.6,0,0,0,.58,5.13,2,2,0,0,1-.07,1.09c-.06.16-.16.32.06.42s.34-.11.41-.29a2.83,2.83,0,0,0,0-1.75,29.68,29.68,0,0,1-.57-4.87c0-.32,0-.67.37-.75s.55.32.59.64c.24,1.74.45,3.47.68,5.2,0,.26.08.5.13.75a3.51,3.51,0,0,1-.61,3c-.82,1.07-1.48,2.26-2.29,3.35a2.76,2.76,0,0,0-.23,3.16c1,1.88,1.9,3.77,2.83,5.66l9.64,19.63L65,87.47H58.7Z"/><path class="cls-11" d="M32.94,87.27c-.08.22-.27.17-.43.17H24.66c-.16,0-.35.06-.43-.16Q27.8,80,31.38,72.8c1.61-3.26,3.16-6.54,4.87-9.75,1-1.8,1-3.34-.34-4.95-.76-.9-1.33-2-2-2.92a2.38,2.38,0,0,1-.44-1.92c.41-2.06.5-4.15.81-6.21a2.83,2.83,0,0,1,.07-.42c.1-.28.13-.67.56-.61s.4.41.39.73a29.3,29.3,0,0,1-.58,5.12,2.49,2.49,0,0,0,.12,1.66.26.26,0,0,0,.34.17.2.2,0,0,0,.13-.27c-.43-1,.06-1.94.16-2.91s.19-2.19.31-3.29c0-.23-.17-.65.29-.65a.64.64,0,0,1,.66.64,8.27,8.27,0,0,1,0,1.86c-.12,1.18-.21,2.37-.29,3.55a1.64,1.64,0,0,0,.09.74c.13.29.29.81.64.65s-.08-.48-.15-.73a2,2,0,0,1-.1-.58c.1-1.61.21-3.21.32-4.82,0-.1,0-.24.11-.28s.26,0,.37.13a1.3,1.3,0,0,1,.31.86c.06,1.21.11,2.43.18,3.64a4.32,4.32,0,0,0,1.16,2.58c.86,1,1.74,2,2.63,3a2.55,2.55,0,0,1,.6,2.64c-1.45,4.92-3.27,9.71-5.06,14.51-1.5,4-3,8.08-4.63,12.06C32.89,87.09,32.93,87.19,32.94,87.27Z"/><path class="cls-12" d="M33.61,86.93l4.46-11.82a.55.55,0,0,1,.55-.4A106.36,106.36,0,0,1,52,74.59a.72.72,0,0,1,.77.5q2.19,5.85,4.39,11.68a1,1,0,0,1-.23.24,1.65,1.65,0,0,1-.9.16q-10.77,0-21.54,0a2.39,2.39,0,0,1-.59,0A.58.58,0,0,1,33.61,86.93Z"/><path class="cls-11" d="M42.15,57.1a5.52,5.52,0,0,0,6.31,0c.19,0,.21.06.15.12a3.32,3.32,0,0,0-.78,3.86c.44,1.19.77,2.41,1.17,3.61.14.4.16.63-.34.78a8.51,8.51,0,0,0-2.38,1.26c-.14.09-.32.2-.21.39s.31.13.49,0a10,10,0,0,1,2.31-1.22c.22-.08.45-.26.59.14.95,2.67,1.91,5.33,2.89,8.08a113.79,113.79,0,0,0-13.94.12c.83-2.27,1.61-4.43,2.39-6.6a2.25,2.25,0,0,0,.08-.24c.6-1.68.59-1.66,2.18-.73.35.2.84.87,1.09.46s-.57-.58-.88-.9a1.38,1.38,0,0,0-.29-.17c-1.37-.78-1.36-.78-.88-2.24.3-.91.53-1.84.86-2.73A3.3,3.3,0,0,0,42.15,57.1Z"/><path class="cls-11" d="M40,14.54a4.18,4.18,0,0,0,.15,4c.09.15.18.41.43.23s.08-.29,0-.46a4.61,4.61,0,0,1,3.6-6.45c2.24-.49,4.79.83,5.38,2.76a5.75,5.75,0,0,1,.09,1.85c0,.18-.11.45.14.5s.31-.27.35-.47a5.75,5.75,0,0,0-.44-3,4,4,0,0,1,3.85,2.48,6.34,6.34,0,0,1-.05,5.17c-.18.44-.34.44-.73.21a14.1,14.1,0,0,0-14.93,0c-.23.13-.44.37-.61-.12A7.23,7.23,0,0,1,37,16.47,2.55,2.55,0,0,1,40,14.54Z"/><path class="cls-11" d="M66.82,86.63,55.63,63.81c2.48.27,5,.27,7.12,1.55,1.76,1,2.38,2.93,2.88,4.8A11,11,0,0,1,66,73a52.26,52.26,0,0,0,.86,9.34A10.3,10.3,0,0,1,66.82,86.63Z"/><path class="cls-11" d="M35.13,64,25.27,84c-.32.65-.64,1.3-1,1.93a13.8,13.8,0,0,1,.26-3.69,28.73,28.73,0,0,0,.36-9.43,9.84,9.84,0,0,1,.26-3.78,6.05,6.05,0,0,1,5.28-4.68,39.32,39.32,0,0,1,4.19-.53C34.81,63.81,35.08,63.62,35.13,64Z"/><path class="cls-13" d="M33.43,39.58c-.55.18-.66-.26-.81-.61a13.7,13.7,0,0,1,3.16-15.26,13.17,13.17,0,0,1,14.1-3.05c5.26,1.85,8.3,5.78,9.09,11.3a12.17,12.17,0,0,1-1,6.95c-.27,0-.29-.18-.34-.36a31.43,31.43,0,0,0,.47-5.73A12.08,12.08,0,0,0,48.06,21.19a14.55,14.55,0,0,0-8.3.86,11.71,11.71,0,0,0-7.13,9.41,14.69,14.69,0,0,0,.68,7.17,1.16,1.16,0,0,1,.09,1Z"/><path class="cls-14" d="M52.1,50.52c0-.14,0-.28,0-.42,0-.48.16-1.06-.05-1.41s-.82.09-1.23,0-.7,0-.82-.33.22-.48.45-.61c.38-.22.2-.55.07-.73-.3-.42-.24-.66.32-.85a1.09,1.09,0,0,1-.95-.74c-.2-.49-.18-.9.52-.89a2.34,2.34,0,0,0,.75-.07c.19-.05.63,0,.33-.48-.14-.23.2-.37.41-.42.85-.2,1.7-.38,2.56-.54.21,0,.5-.06.59.19s-.24.37-.43.48-.67.37-1.11.6a2.45,2.45,0,0,0,1.28-.05.72.72,0,0,1,.77.23c.18.3-.23.46-.4.54-.4.2-.36.57-.5.87s-.68.16-.84.53c0,.79-.84.6-1.17,1a4.09,4.09,0,0,1-1.4.57c.38,0,.84-.43,1,.27A10.15,10.15,0,0,1,52.1,50.52Z"/><path class="cls-15" d="M33.61,86.93h.14a1.47,1.47,0,0,0,.83.09H56c.34,0,.75.16,1-.25h.14c.32.43.26.61-.33.61H34C33.74,87.37,33.22,87.53,33.61,86.93Z"/><path class="cls-16" d="M57.93,52.75c-.41-1.72-.9-3.41.23-5a3.47,3.47,0,0,1,1-1.1c.15-.09.32-.29.53-.16s0,.36,0,.54a1.11,1.11,0,0,1,0,.25A24.35,24.35,0,0,0,57.93,52.75Z"/><path class="cls-17" d="M32.76,52.48c-.18-2.11-1.28-4-1.81-6.11a2.57,2.57,0,0,1,1.65,1.25,4.77,4.77,0,0,1,.59,4c-.07.28-.09.56-.14.83S32.86,52.59,32.76,52.48Z"/><path class="cls-18" d="M52.23,48.25c-.43-.52-.92.06-1.45-.07a3.23,3.23,0,0,1,1.83-.77Z"/><path class="cls-19" d="M57.82,38.54l.18.37c-.07.28-.1.59-.43.71h-.22A.84.84,0,0,1,57.82,38.54Z"/><path class="cls-20" d="M53.78,46.4c.07-.5.47-.5.84-.53h.51C54.73,46.17,54.16,46.05,53.78,46.4Z"/><path class="cls-21" d="M32.76,52.48h.29c0,.15.11.37-.12.38S32.71,52.66,32.76,52.48Z"/><path class="cls-22" d="M35.13,64c-.1-.29-.37-.1-.54-.2.2-.13.42-.23.62-.07S35.24,64,35.13,64Z"/><path class="cls-23" d="M57.82,38.54l-.47,1.07c-.17,0-.37.06-.39-.17-.13-1.27-1-2.09-1.74-3A12.27,12.27,0,0,0,54,35.23a9.6,9.6,0,0,1-3.28-6.14A9.21,9.21,0,0,1,47,32.63a2.55,2.55,0,0,1-1.89.83c-2.41.82-4.89,1.44-7.25,2.41-1.69.7-3.28,1.55-3.88,3.48-.09.28-.28.32-.53.26A14.94,14.94,0,0,1,33,29c1.69-5,6.28-8.16,12.06-8.32,6.22-.17,11.3,3.41,12.89,9.13a16.57,16.57,0,0,1,0,8.13Z"/><path class="cls-14" d="M47.16,41.8c.18.12.42.21.39.49s-.23.2-1.09.42c.3.24.8.32.14.85-.36.3-.4.88-1.12.81-.92-.09-1.51-.46-1.62-1.39a14.14,14.14,0,0,1,0-3.5c.07-.55.33-1,.36-1.52A1,1,0,0,1,45.31,37a8.62,8.62,0,0,1,1.37.25c.36.1.15.31,0,.5a1.26,1.26,0,0,0,.15,1.87c.25.26,0,.4-.15.52s-.41.22-.36.5.31.27.53.29.46.18.29.5C47,41.58,46.94,41.69,47.16,41.8Z"/><path class="cls-24" d="M42.24,45l.06,0c-.39.45,0,1-.17,1.47-.07.31,0,.72-.54.71-.12,0-.41.11-.16.31.44.34,0,.59-.11.76s-.81.32-.71.91c0,0-.18.08-.27.13-.12-.52-1.12-.1-1-1.07.06-.46-.65-1-1.06-1.53-.24-.29-.34-.5,0-.73.59-.34.34-1,.43-1.45.06-.3-.25-.22-.43-.24s-.39-.06-.38-.25.27-.29.46-.25a16,16,0,0,0,3.51.35c.41,0,.43.13.15.49s-.56.22-.86.24c-.11,0,.06.18,0,.08A1.41,1.41,0,0,1,42.24,45Z"/><path class="cls-14" d="M45.06,33.46,47,32.63a13.61,13.61,0,0,1,2-.16c.22,0,.52,0,.47.34s-.32.13-.5.12a6.31,6.31,0,0,0-3.17.91c.07.25.78.18.28.64-.25.23.05.19.13.22.42.15.74.5,1.21.55a.43.43,0,0,1,.38.49c0,.23-.27.22-.45.3a8.05,8.05,0,0,1-3.48.32c-.46,0-1.15,0-.77-.82.08-.18-.06-.17-.16-.18-.28,0-.5-.16-.46-.49s.34-.32.57-.42c.63-.28,1.39-.24,2-.71C45.05,33.66,45.27,33.64,45.06,33.46Z"/><path class="cls-14" d="M48.34,53.34c.19,0,.44-.05.47.23s-.18.24-.34.29l-1.35.36c.29.23.56.1.8.14s.46-.09.5.18-.21.3-.41.32c-.43,0-.81.06-.27.56.11.11,0,.26-.1.36a2.38,2.38,0,0,1-2.33-.07,1.43,1.43,0,0,1,.28-1.51L46,54a.84.84,0,0,0-.93-.5c-.13,0-.3,0-.34-.17a.24.24,0,0,1,.23-.29c1.25,0,2.43-.51,3.68-.39.15,0,.34,0,.33.19,0,.35-.34.31-.59.32a.9.9,0,0,1-.85.23C47.76,53.52,48.05,53.33,48.34,53.34Z"/><path class="cls-25" d="M45.46,50.57l-2,.1a1.12,1.12,0,1,1-.41-2.21,8.81,8.81,0,0,1,4.75,0,1.07,1.07,0,0,1,.87,1.33,1,1,0,0,1-1.24.87Z"/><path class="cls-26" d="M51.25,40.68c0,.73-.12,1.33-.93,1.47a1,1,0,0,1-1.23-.65,1.86,1.86,0,0,1,.51-2.13,2.09,2.09,0,0,1,2.74.68c.09.16.27.36.06.52s-.32-.08-.44-.22-.31-.49-.58-.39S51.36,40.46,51.25,40.68Z"/><path class="cls-26" d="M39.48,39.8a1.41,1.41,0,0,0-.8.66c-.09.14-.2.22-.35.14s-.1-.27,0-.42a2.12,2.12,0,0,1,2.47-1,1.6,1.6,0,0,1,.93,2.08,1.07,1.07,0,0,1-1.19.86,1,1,0,0,1-1-1C39.45,40.7,39.48,40.26,39.48,39.8Z"/><path class="cls-27" d="M38.71,37.57a3.55,3.55,0,0,1-1.35-.18c-.21-.07-.39-.19-.34-.41a.33.33,0,0,1,.46-.24,5.23,5.23,0,0,0,3.81-.59c.22-.12.42-.21.57.05s0,.42-.24.54A4.91,4.91,0,0,1,38.71,37.57Z"/><path class="cls-25" d="M52.05,37.64a4.59,4.59,0,0,1-2.7-.77c-.23-.16-.52-.32-.3-.66s.44-.06.64.06a4.63,4.63,0,0,0,3.58.48c.22-.06.47-.15.57.15s-.16.39-.36.48A4.17,4.17,0,0,1,52.05,37.64Z"/><path class="cls-28" d="M45.34,46.54a1.56,1.56,0,0,1-.9-.26c-.24-.17-.64-.39-.43-.7s.42.11.62.23a1.1,1.1,0,0,0,1.52-.17c.11-.11.22-.29.4-.14s.08.35,0,.51A1.65,1.65,0,0,1,45.34,46.54Z"/><path class="cls-29" d="M45.44,51.25h1c.16,0,.37,0,.36.23s-.2.26-.37.26l-2.19,0c-.13,0-.29-.05-.29-.24s.16-.22.3-.23c.39,0,.78,0,1.18,0Z"/><path class="cls-30" d="M43.34,54.28c-.07.29-.19.57-.54.54a.52.52,0,0,1-.52-.55.49.49,0,0,1,.49-.49C43.11,53.75,43.28,54,43.34,54.28Z"/><path class="cls-31" d="M48.32,34.2a.45.45,0,0,1-.46.49.46.46,0,0,1-.53-.49.43.43,0,0,1,.43-.5A.55.55,0,0,1,48.32,34.2Z"/><path class="cls-30" d="M37.4,44.69c.23,0,.39.07.41.31a.32.32,0,0,1-.35.37c-.21,0-.39-.09-.41-.32S37.2,44.72,37.4,44.69Z"/><path class="cls-32" d="M44.46,50.84h2v.07h-2Z"/><path class="cls-33" d="M48.34,53.34c-.31.29-.67.16-1.2.1l1.21-.27A1,1,0,0,0,48.34,53.34Z"/><path class="cls-34" d="M42.24,45H41.1c.3-.2.68-.14,1-.34Z"/><path class="cls-35" d="M47.16,41.8c-.19,0-.39.07-.56-.09.09-.3.35-.22.55-.25Z"/><path class="cls-36" d="M57,86.76c-.07.42-.39.34-.66.34h-22c-.22,0-.46,0-.63-.17H55.84A2,2,0,0,0,57,86.76Z"/><path class="cls-37" d="M37.65,17.63A4.59,4.59,0,0,1,38,15.91c.07-.19.13-.42.39-.32s.17.29.1.45a4,4,0,0,0,.26,3.72c.08.14.09.26-.06.36s-.31,0-.39-.17A4.21,4.21,0,0,1,37.65,17.63Z"/><path class="cls-38" d="M52.74,18c-.07.33-.16.82-.28,1.31,0,.2-.13.4-.39.29s-.14-.26-.08-.42a4.87,4.87,0,0,0-.25-3.52c-.06-.16-.23-.38,0-.5s.35.14.42.3A7.48,7.48,0,0,1,52.74,18Z"/><path class="cls-39" d="M48,15.77a4.09,4.09,0,0,1-.62,2.07c-.1.14-.22.28-.41.18s-.12-.28,0-.43a3.51,3.51,0,0,0,.4-2.84c0-.2-.19-.5.14-.56s.31.28.35.48C47.9,15.06,47.94,15.45,48,15.77Z"/><path class="cls-40" d="M51.36,46.48a2.54,2.54,0,0,1,1.43-.36A1.77,1.77,0,0,1,51.36,46.48Z"/><path class="cls-12" d="M46.13,21.29a2.34,2.34,0,0,1,1.23.14.34.34,0,0,1-.35.1c.15,0,.4.06.65-.07,4.9.4,9.76,5.25,10,10-.15.22,0,.49-.1.74.09-.15-.05-.36.14-.47a10.8,10.8,0,0,1-.28,5.05,23.6,23.6,0,0,0-.52-2.39c-1.46-4.6-4.81-6.9-9.4-7.69l-.73-.14c.12-.12.26-.17.33-.09a2,2,0,0,0-1,.05,15.25,15.25,0,0,0-5.41.76,10.46,10.46,0,0,0-7.37,8.85c0,.25-.08.5-.13.75a.1.1,0,0,1,0,.07C31.39,30.2,35,22.66,42.92,21.47a2.21,2.21,0,0,0,.78.05.53.53,0,0,1-.47-.09,2.3,2.3,0,0,1,1.22-.13A4.52,4.52,0,0,0,46.13,21.29Z"/><path class="cls-11" d="M33.8,38a9.94,9.94,0,0,1,2.12-6.73c2.73-3.36,6.41-4.39,10.57-4.14a13,13,0,0,1,3.46.73c.48.17.51.36.32.8a6.79,6.79,0,0,1-3,3.12,30.41,30.41,0,0,1-6.11,2.36l-1.61.52A11.67,11.67,0,0,0,33.8,38Z"/><path class="cls-11" d="M51.28,28.45a9.83,9.83,0,0,1,5.47,9.07c-1.07-1.68-2.66-2.77-3.8-4.28A9.31,9.31,0,0,1,51.28,28.45Z"/><path class="cls-41" d="M46.13,21.29a2.09,2.09,0,0,1-1.68,0A6.3,6.3,0,0,1,46.13,21.29Z"/><path class="cls-42" d="M43.23,21.43c.23.06.48-.06.77.15-.42,0-.76.14-1.08-.11Z"/><path class="cls-43" d="M46.14,26.52c.32-.27.67-.15,1,0l-.39.06Z"/><path class="cls-44" d="M57.7,31.73l-.09.8c-.12-.52-.19-.81,0-1.07Z"/><path class="cls-45" d="M47.66,21.46c-.26.23-.55.18-1,0l.72-.07Z"/><path class="cls-46" d="M45.86,43.79c-.25.28-.52.24-.85.11C45.28,43.53,45.58,43.72,45.86,43.79Z"/><path class="cls-47" d="M46.62,35.51c-.33.48-.67.31-1,.24Z"/><path class="cls-46" d="M43.89,34.82a1.76,1.76,0,0,1-.34.17s-.11-.07-.17-.11a2,2,0,0,1,.26-.18S43.76,34.76,43.89,34.82Z"/><path class="cls-17" d="M45.6,50.07c-.59,0-1.33,0-2.05.11-.48,0-.83-.08-.9-.54s.25-.62.65-.72a8,8,0,0,1,4.25,0c.44.11.76.3.65.79s-.45.5-.86.46S46.27,50.11,45.6,50.07Z"/></g></g></g></svg>