<svg xmlns="http://www.w3.org/2000/svg" xmlns:xlink="http://www.w3.org/1999/xlink" viewBox="0 0 74.42 79.75"><defs><style>.cls-1{fill:none;}.cls-2{clip-path:url(#clip-path);}.cls-3{fill:#c0785e;}.cls-4{fill:#ad5e48;}.cls-5{fill:#facf9d;}.cls-6{fill:#f7bc8b;}</style><clipPath id="clip-path" transform="translate(-6.92 -7.38)"><circle class="cls-1" cx="44" cy="44" r="44"/></clipPath></defs><g id="圖層_2" data-name="圖層 2"><g id="圖層_1-2" data-name="圖層 1"><g class="cls-2"><path class="cls-3" d="M30.15,87.09l-10.44,0c-4,0-8.09,0-12.13,0-.64,0-.76-.15-.6-.75A7.79,7.79,0,0,1,8.76,83a20.88,20.88,0,0,1,1.75-1.77c3-2.72,3.42-5.84,2-9.73A31,31,0,0,1,10.94,67c-.65-3.42-.11-6.48,2.36-9.08A8.23,8.23,0,0,0,15.66,54a8.9,8.9,0,0,0-.57-5.81,18.84,18.84,0,0,1-1.72-10.29,37.89,37.89,0,0,1,3.27-13.47C21.05,15.06,28.41,9.61,38.57,7.9a17.92,17.92,0,0,1,3.1-.33,20.94,20.94,0,0,1,6.55.68,28.13,28.13,0,0,1,12.19,6.86,29.86,29.86,0,0,1,7.52,11.81,37.63,37.63,0,0,1,2.15,10.66c0,1,.09,2,.14,3a14,14,0,0,1-1.59,7.12,10.19,10.19,0,0,0-1,4.67,7,7,0,0,0,1.7,4.41c.52.65,1.05,1.29,1.57,1.93a9.19,9.19,0,0,1,1.82,7,15.23,15.23,0,0,1-1.4,5,12.23,12.23,0,0,0-1.08,3.93,6.52,6.52,0,0,0,1.82,5.44,25.39,25.39,0,0,1,3.5,4,7.51,7.51,0,0,1,.9,2.22c.08.34.08.63-.25.84H58.06c-1.77-.15-2.86-1.35-3.81-2.63a14.09,14.09,0,0,1-2.63-7.6,9.81,9.81,0,0,1-.19-2.7,1,1,0,0,1,.68-.9,16.66,16.66,0,0,0,3.18-2.16A25.18,25.18,0,0,0,62,61.54,60.78,60.78,0,0,0,66.37,44.1c.18-1.6.24-3.2.44-4.79a4.28,4.28,0,0,0,0-.8c0-.8-.22-1.13-1-1.17-1.36-.06-2.61-.55-3.94-.74a13.38,13.38,0,0,1-5.37-2.34A20,20,0,0,1,49.57,26c-.36-.76-.49-.78-1-.11A15.21,15.21,0,0,1,47,27.77,21.82,21.82,0,0,1,41.16,32a49.69,49.69,0,0,1-15.88,4.9c-.9.15-1.8.25-2.7.35s-1.24.46-1.18,1.36A76.57,76.57,0,0,0,24.34,56.4a35.32,35.32,0,0,0,5.44,11.29A20.33,20.33,0,0,0,36,73.2c.31.17.72.29.68.78a7.22,7.22,0,0,1,0,2.74A17.57,17.57,0,0,1,35,82.78a11.34,11.34,0,0,1-2.83,3.55A4.92,4.92,0,0,1,30.15,87.09Z" transform="translate(-6.92 -7.38)"/><path class="cls-4" d="M76.23,87.09a8.65,8.65,0,0,0-2.7-5c-.37-.38-.74-.78-1.14-1.13-2.74-2.39-3.07-5.37-2.11-8.64.3-1,.78-2,1.18-3A13.94,13.94,0,0,0,72.33,63a8.77,8.77,0,0,0-2.41-4.89,8.58,8.58,0,0,1-1.79-10.26A18,18,0,0,0,69.72,38a39,39,0,0,0-2.18-10.9Q61.33,10.45,43.75,7.77c-.69-.11-1.39-.13-2.08-.2a15.08,15.08,0,0,1,4.08-.11A30.56,30.56,0,0,1,59.54,11.2C66.64,15.18,71,21.28,73.33,29a41,41,0,0,1,1.61,13.08,12,12,0,0,1-1.37,5.06,11.77,11.77,0,0,0-1.18,4.46,7.46,7.46,0,0,0,1.93,5.61,13,13,0,0,1,2.54,3.58,11.59,11.59,0,0,1-.29,8.68A19.74,19.74,0,0,0,75,74.38a7.11,7.11,0,0,0,1.79,5.85c1,1,2.07,2,3,3.07a8.21,8.21,0,0,1,1.54,3.22c.13.51,0,.61-.49.6C79.28,87.1,77.75,87.1,76.23,87.09Z" transform="translate(-6.92 -7.38)"/><path class="cls-5" d="M51.94,76.82a20.41,20.41,0,0,0,1.29,5,9.6,9.6,0,0,0,4.83,5.23l-7.7,0q-9.63,0-19.25,0l-1,0c3.76-1.79,5.13-5.16,5.9-8.92.1-.45.15-.9.22-1.35s.57-.38.93-.27c.89.26,1.78.55,2.7.73a20.5,20.5,0,0,0,10.57-.57c.26-.08.51-.16.77-.22A.5.5,0,0,1,51.94,76.82Z" transform="translate(-6.92 -7.38)"/><path class="cls-5" d="M36.42,73.93a24.86,24.86,0,0,1-4-2.71A28.6,28.6,0,0,1,25,59.58a64.87,64.87,0,0,1-3.71-17.3c-.12-1.33-.23-2.66-.28-4s-.2-1.24,1.33-1.41a60.29,60.29,0,0,0,13.46-2.95,29,29,0,0,0,10.92-6.4c.53-.37.72.1.93.41a22.21,22.21,0,0,0,2.5,3.22,18.15,18.15,0,0,0,10.74,5.3c.68.09,1.36.27,2.06.3s.81.28.84.85a28.75,28.75,0,0,1-.19,3.6,73,73,0,0,1-2.24,13.52,43.25,43.25,0,0,1-4.08,10.34,7.17,7.17,0,0,1-.46.75c-.18.24-.34.53-.7.37s-.31-.53-.21-.84a16.09,16.09,0,0,0,.59-2.58,5.29,5.29,0,0,0-1-3.94,2,2,0,0,0-.57-.55.81.81,0,0,0-1,0,.8.8,0,0,0-.22.95.86.86,0,0,0,.14.29c1.44,1.81,1,3.71.24,5.62-.06.15-.14.29-.21.43-.47,1.09-.31,1.48.77,1.9.59.22.7.52.31,1-3,3.9-6.88,6.57-11.88,7.24A11.44,11.44,0,0,1,37,74.53C36.74,74.41,36.61,74.14,36.42,73.93Z" transform="translate(-6.92 -7.38)"/><path class="cls-6" d="M36.42,73.93a29.57,29.57,0,0,0,4.45,1.32,8.43,8.43,0,0,0,2.79,0,17.69,17.69,0,0,0,10.69-6.6c.34-.42.59-.69-.23-.87s-1.26-1-.79-2a11.07,11.07,0,0,0,1-3,3.56,3.56,0,0,0-.74-3,1.35,1.35,0,0,1,0-2.05,1.44,1.44,0,0,1,2,.44c1.6,1.91,1.6,4,1,6.3l-.33,1.15s0,0,.07.12a24.78,24.78,0,0,0,2.43-4.68,61.87,61.87,0,0,0,4.17-17.26c.21-1.94.31-3.89.47-5.83.06-.74-.21-1-1-1.07a18.21,18.21,0,0,1-15-8.61c-.21-.31-.36-.67-.72-.84a23.08,23.08,0,0,0,2.52-3.4A25.36,25.36,0,0,0,51,27.81a18,18,0,0,0,13.54,9,13.8,13.8,0,0,0,1.92.15c.6,0,.77.27.77.84a65.75,65.75,0,0,1-.52,6.87,63.57,63.57,0,0,1-3.49,15,31.2,31.2,0,0,1-5.66,9.82,17.78,17.78,0,0,1-5,4,1.14,1.14,0,0,0-.73,1.26c.07.69.09,1.38.13,2.07a1.51,1.51,0,0,0-.86.13,20.78,20.78,0,0,1-7.54,1.17A20.16,20.16,0,0,1,37.35,77a1.92,1.92,0,0,0-1.08-.2Z" transform="translate(-6.92 -7.38)"/><path class="cls-6" d="M44.67,40.85H35.35c-1,0-1.52-.51-1.5-1.3s.55-1.23,1.54-1.26H53.7c1.34,0,1.93.39,1.95,1.26s-.59,1.31-2,1.31Z" transform="translate(-6.92 -7.38)"/><path class="cls-6" d="M44.1,61.41h7.31a1.7,1.7,0,0,1,1.22.32A1.21,1.21,0,0,1,53.05,63a1.14,1.14,0,0,1-.88.95,5.15,5.15,0,0,1-1,.08H37.08c-.22,0-.43,0-.65,0a1.26,1.26,0,0,1-1.3-1.25,1.25,1.25,0,0,1,1.34-1.29c1.23,0,2.47,0,3.7,0Z" transform="translate(-6.92 -7.38)"/><path class="cls-6" d="M46.69,37c-1.69,0-3.37,0-5.06,0a1.27,1.27,0,1,1,0-2.54c3.35,0,6.69,0,10,0a1.25,1.25,0,0,1,1.4,1.23A1.27,1.27,0,0,1,51.67,37c-1.66,0-3.32,0-5,0Z" transform="translate(-6.92 -7.38)"/><path class="cls-6" d="M34.93,49.83a5.89,5.89,0,0,1-4.79-3.24,1.25,1.25,0,0,1,.45-1.68,1.29,1.29,0,0,1,1.76.43c.11.15.19.32.3.47a2.85,2.85,0,0,0,4.9,0c.13-.17.22-.37.35-.54a1.29,1.29,0,0,1,1.71-.38,1.28,1.28,0,0,1,.48,1.68A6.05,6.05,0,0,1,34.93,49.83Z" transform="translate(-6.92 -7.38)"/><path class="cls-6" d="M53.11,49.85a6,6,0,0,1-5-3.19,1.29,1.29,0,0,1,.44-1.76,1.3,1.3,0,0,1,1.8.52c.11.15.2.32.31.47a2.84,2.84,0,0,0,4.85-.08c.13-.17.22-.37.35-.53a1.29,1.29,0,0,1,1.71-.38,1.26,1.26,0,0,1,.46,1.69A6,6,0,0,1,53.11,49.85Z" transform="translate(-6.92 -7.38)"/><path class="cls-6" d="M33.82,57.58a1.22,1.22,0,0,1,1,1.94c-1.63,1.91-1,3.82-.22,5.78a5.67,5.67,0,0,1,.41,1,1.14,1.14,0,0,1-.64,1.34,1.23,1.23,0,0,1-1.54-.28c-2-2.11-2.08-7-.21-9.19A1.48,1.48,0,0,1,33.82,57.58Z" transform="translate(-6.92 -7.38)"/></g></g></g></svg>