<?xml version="1.0" encoding="utf-8"?>
<!-- Generator: Adobe Illustrator 24.3.0, SVG Export Plug-In . SVG Version: 6.00 Build 0)  -->
<svg version="1.1" id="圖層_1" xmlns="http://www.w3.org/2000/svg" xmlns:xlink="http://www.w3.org/1999/xlink" x="0px" y="0px"
	 viewBox="0 0 88 88" style="enable-background:new 0 0 88 88;" xml:space="preserve">
<style type="text/css">
	.st0{fill:#FFFFFF;}
	.st1{clip-path:url(#SVGID_2_);}
	.st2{fill:#EF8FB3;}
	.st3{fill:#F5B0A2;}
	.st4{fill:#FADACE;}
	.st5{fill:#040000;}
	.st6{fill:#F1A38E;}
	.st7{fill:#F7C3B4;}
	.st8{fill:#EC749F;}
	.st9{fill:#050000;}
	.st10{fill:#F4EFF6;}
	.st11{fill:#EBE4EB;}
	.st12{fill:#827E7C;}
	.st13{fill:#716D6A;}
	.st14{fill:#F3EDF5;}
	.st15{fill:#F3EEF5;}
	.st16{fill:#070404;}
	.st17{fill:#060302;}
	.st18{fill:#7A7774;}
	.st19{fill:#F5EFF7;}
	.st20{clip-path:url(#SVGID_4_);}
	.st21{fill:#EAEAEA;}
	.st22{fill:#4C241D;}
	.st23{fill:#EC6C45;}
	.st24{fill:#4B241C;}
	.st25{fill:#F9E794;}
	.st26{fill:#F9E694;}
	.st27{fill:#694F5A;}
	.st28{fill:#694E59;}
	.st29{fill:#5F3F44;}
	.st30{fill:#553231;}
	.st31{fill:#4D251E;}
	.st32{fill:#4D261E;}
	.st33{clip-path:url(#SVGID_6_);}
	.st34{fill:#C0785E;}
	.st35{fill:#AD5E48;}
	.st36{fill:#FACF9D;}
	.st37{fill:#F7BC8B;}
	.st38{clip-path:url(#SVGID_8_);}
	.st39{fill:#DEAFA8;}
	.st40{fill:#FBE0D4;}
	.st41{fill:#F9CFBE;}
	.st42{fill:#C59791;}
	.st43{fill:#DDAFA7;}
	.st44{fill:#C59891;}
	.st45{fill:#F7CDBC;}
	.st46{fill:#F8CEBD;}
	.st47{clip-path:url(#SVGID_10_);}
	.st48{fill:#F4A56B;}
	.st49{fill:#21150C;}
	.st50{fill:#20150C;}
	.st51{fill:#F9D68F;}
	.st52{fill:#FDF1D9;}
	.st53{fill:#F199AB;}
	.st54{fill:#9FD7E7;}
	.st55{clip-path:url(#SVGID_12_);}
	.st56{fill:#161717;}
	.st57{fill:#1E1F1F;}
	.st58{fill:#666767;}
	.st59{fill:#333434;}
	.st60{fill:#797A7A;}
	.st61{fill:#555555;}
	.st62{fill:#454545;}
	.st63{fill:#8C8D8C;}
	.st64{fill:#B2DCF5;}
	.st65{fill:#FEFEFE;}
	.st66{fill:#EAE2E2;}
	.st67{fill:#C0E4F3;}
	.st68{fill:#FCFDFD;}
	.st69{fill:#FDFDFD;}
	.st70{fill:#F8F7F7;}
	.st71{fill:#D3D2D1;}
	.st72{fill:#F5F4F4;}
	.st73{fill:#969594;}
	.st74{fill:#727171;}
	.st75{fill:#050101;stroke:#040000;stroke-width:0.25;stroke-miterlimit:10;}
	.st76{fill:#EBE2E2;}
	.st77{fill:#0C0C0C;}
	.st78{fill:#060404;}
	.st79{fill:#0B0B0B;}
	.st80{fill:#1A1B1B;}
	.st81{fill:#1F1F1F;}
	.st82{fill:#F4B0B4;}
	.st83{fill:#F4AFB4;}
	.st84{fill:#F9FAFA;}
	.st85{fill:#F8F5F5;}
	.st86{fill:#F6F2F2;}
	.st87{fill:#F7F3F3;}
	.st88{fill:#AED6F0;}
	.st89{fill:#181A19;}
	.st90{fill:#1B1D1C;}
	.st91{fill:#1E1E1E;}
	.st92{fill:#FBF9F9;}
	.st93{fill:#B9E2F7;}
	.st94{fill:#BBE3F6;}
	.st95{fill:#BFE4F4;}
	.st96{fill:#BCE3F5;}
	.st97{fill:#BCE3F6;}
	.st98{fill:#F3EEEE;}
	.st99{fill:#F1ECEC;}
</style>
<g>
	<defs>
		<circle id="SVGID_7_" cx="44" cy="44" r="44"/>
	</defs>
	<clipPath id="SVGID_2_">
		<use xlink:href="#SVGID_7_"  style="overflow:visible;"/>
	</clipPath>
	<g class="st1">
		<path class="st39" d="M53.6,83.4c0-0.2,0.2-0.4,0.3-0.5c2.9-3,3.7-6.6,3.3-10.6c0-0.2,0-0.5-0.1-0.7c-0.1-0.6,0.1-0.8,0.7-1
			c3.1-1.1,4.6-4.2,3.8-7.2c-0.9-3-3.9-4.8-7.1-4c-0.5,0.1-0.7,0-1-0.4c-0.5-1-1-2-1.7-3c-0.4-0.6-0.2-0.8,0.2-1.2
			c2.2-2,5.5-1.9,7.6,0.1c0.8,0.7,1.5,1.5,2.3,2.3c3.4,2.9,8.3,2.8,11.6-0.2c0.6-0.6,1.2-1.2,1.8-1.8c2.4-2.3,5.8-2.3,8.2,0
			c1.4,1.4,2.8,2.8,4.2,4.2c0.9,0.9,0.9,0.9,1.9,0.1c0.3,0.1,0.1,0.4,0.1,0.6c0,8.8,0,17.7,0,26.5c0,0.7-0.2,0.8-0.8,0.8
			c-2.3,0-4.6,0-6.9,0c0.6-1.6,0.4-3-1.1-4c-1-0.7-2.3-0.6-3.3,0.1c-1.1,0.8-1.4,2-0.9,3.8c-6.1,0-12.2,0-18.3,0
			c0.2-0.7,0.4-1.4,0.2-2.1c-0.5-1.9-2.6-2.8-4.4-1.9C54.1,83.2,53.9,83.4,53.6,83.4L53.6,83.4z"/>
		<path class="st39" d="M34.2,83.4c-1.1-0.8-2.3-1.1-3.5-0.3c-1.1,0.6-1.6,1.6-1.5,2.9c0,0.4,0.2,0.7,0.3,1.1c-6.1,0-12.2,0-18.3,0
			c0.6-1.6,0.3-3-1.2-4c-1-0.6-2.4-0.5-3.3,0.2c-1.1,0.9-1.4,2-0.9,3.8c-2.4,0-4.9,0-7.3,0c-0.5,0-0.4-0.3-0.4-0.6
			c0-2.1,0-4.1,0-6.2c0-6.7,0-13.4,0-20.1c0-0.3,0-0.6,0-0.9c0.1,0,0.2,0,0.2,0c0.6,0.8,1.1,0.6,1.7-0.1c1.4-1.5,2.9-2.9,4.4-4.4
			c2.4-2.4,5.7-2.3,8.2,0c0.6,0.6,1.2,1.2,1.8,1.8c3.5,3.2,8.5,3.2,12,0c0.7-0.7,1.3-1.4,2-2c2.2-2,5.5-1.9,7.6,0.1
			c0.4,0.4,0.4,0.6,0.1,1.1c-0.6,1-1.2,2-1.7,3c-0.2,0.5-0.5,0.6-1,0.5c-3.2-0.8-6.2,1-7.1,4.2c-0.8,2.9,0.7,6,3.6,7
			c1,0.3,0.9,0.8,0.8,1.5c-0.4,3.2-0.1,6.3,1.7,9c0.5,0.8,1.2,1.5,1.8,2.3C34.4,83.4,34.4,83.5,34.2,83.4z"/>
		<path class="st40" d="M50.2,52.2c-0.9-2.7,0.8-5,3.5-5c11.8,0,23.6,0,35.4,0c0.5,0,0.8,0,0.8,0.6c0,3,0,5.9,0,9.1
			c-0.4-0.4-0.8-0.8-1.1-1.1c-1-1-2-2-3-3c-3.7-3.6-8.9-3.6-12.5,0c-0.6,0.6-1.2,1.2-1.8,1.7c-2.1,2-5.4,1.9-7.5,0
			c-0.5-0.4-0.9-0.9-1.4-1.4C58.8,49.5,54.5,49.1,50.2,52.2z"/>
		<path class="st40" d="M-1.8,56.9c0-3.2,0-6.2,0-9.3c0-0.6,0.3-0.5,0.6-0.5c1.5,0,3.1,0,4.6,0c10.3,0,20.6,0,30.9,0
			c2.8,0,4.4,2.3,3.5,5c-1.5-1.2-3.1-1.9-5-2.1c-2.6-0.2-4.8,0.7-6.7,2.5c-0.6,0.6-1.2,1.2-1.8,1.8c-2.3,2.2-5.6,2.2-7.9,0
			c-0.5-0.5-1-1-1.4-1.4c-3.8-3.8-9-3.8-12.9,0C0.8,54.2-0.4,55.5-1.8,56.9z"/>
		<path class="st41" d="M45.8,63.4c1,2.6,1.9,5.3,2.5,8c0.4,1.7-0.4,3.5-1.8,4.5c-1.5,1-3.4,1-4.9,0c-1.5-1-2.2-2.8-1.9-4.5
			c0.6-2.8,1.5-5.4,2.5-8C43.4,62.9,44.6,62.9,45.8,63.4z"/>
		<path class="st42" d="M29.2,65c0-1.8,1.4-3.1,3-3.1c0.6,0,0.9,0.1,0.6,0.8c-0.6,1.4-1,2.9-1.3,4.4c-0.1,0.6-0.3,0.5-0.7,0.3
			C29.8,66.9,29.3,66,29.2,65z"/>
		<path class="st42" d="M58.8,65c-0.1,1-0.6,2-1.7,2.5c-0.3,0.2-0.5,0.2-0.6-0.3c-0.3-1.6-0.8-3.1-1.3-4.6c-0.2-0.6,0-0.6,0.5-0.7
			C57.2,61.8,58.8,63.2,58.8,65z"/>
		<path class="st43" d="M34.2,83.4c0.1-0.1,0.1-0.1,0.2-0.2c2.2,2,4.7,3.3,7.6,3.8c-2.4,0-4.7,0-7.2,0
			C35.4,85.7,35.2,84.5,34.2,83.4z"/>
		<path class="st43" d="M53.6,83.4c0,0.4-0.4,0.7-0.5,1.1c-0.4,0.9-0.3,1.7,0.1,2.6c-2.5,0-4.9,0-7.3,0c2.8-0.5,5.2-1.6,7.4-3.5
			C53.3,83.5,53.5,83.4,53.6,83.4C53.6,83.4,53.6,83.4,53.6,83.4z"/>
		<path class="st42" d="M45.8,63.4c-1.2,0-2.4,0-3.6,0c0.6-1.5,1.1-3.1,1.7-4.6c0.1,0,0.1,0,0.2,0C44.7,60.4,45.2,61.9,45.8,63.4z"
			/>
		<path class="st5" d="M85.4,64.9c0,3.3-2.6,5.9-5.9,5.9c-3.3,0-5.9-2.6-5.9-5.9c0-3.3,2.6-5.9,5.9-5.9C82.8,59,85.4,61.6,85.4,64.9
			z"/>
		<path class="st5" d="M67.7,69.3c2.4,0,4.4,2,4.4,4.5c0,2.4-2,4.4-4.4,4.4c-2.5,0-4.4-2-4.4-4.5C63.2,71.3,65.2,69.3,67.7,69.3z"/>
		<path class="st5" d="M14.4,64.9c0,3.3-2.6,5.9-5.9,5.9c-3.3,0-5.9-2.6-5.9-5.9c0-3.3,2.6-5.9,5.9-5.9C11.8,59,14.4,61.6,14.4,64.9
			z"/>
		<path class="st5" d="M20.2,78c-2.5,0-4.4-2-4.3-4.5c0-2.4,2.1-4.4,4.5-4.3c2.5,0,4.4,2.1,4.4,4.6C24.7,76.2,22.7,78.1,20.2,78z"/>
		<path class="st44" d="M82.4,64.9c0,1.6-1.4,2.9-2.9,2.9c-1.6,0-2.9-1.3-3-2.9c0-1.6,1.4-3,3-3C81.1,62,82.4,63.3,82.4,64.9z"/>
		<path class="st45" d="M67.7,72.3c0.8,0,1.4,0.7,1.4,1.5c0,0.8-0.7,1.5-1.5,1.5c-0.8,0-1.5-0.7-1.5-1.5
			C66.2,72.9,66.9,72.3,67.7,72.3z"/>
		<path class="st44" d="M11.5,64.9c0,1.6-1.4,2.9-2.9,3c-1.6,0-2.9-1.3-3-2.9c0-1.6,1.4-3,3-3C10.1,62,11.5,63.3,11.5,64.9z"/>
		<path class="st46" d="M21.8,73.6c0,0.8-0.7,1.4-1.5,1.4c-0.8,0-1.5-0.7-1.5-1.5c0-0.8,0.7-1.5,1.5-1.5
			C21.1,72.2,21.8,72.9,21.8,73.6z"/>
	</g>
</g>
</svg>
