<svg xmlns="http://www.w3.org/2000/svg" xmlns:xlink="http://www.w3.org/1999/xlink" viewBox="0 0 88 83.5"><defs><style>.cls-1{fill:none;}.cls-2{clip-path:url(#clip-path);}.cls-3{fill:#ef8fb3;}.cls-4{fill:#f5b0a2;}.cls-5{fill:#fadace;}.cls-6{fill:#040000;}.cls-7{fill:#f1a38e;}.cls-8{fill:#f7c3b4;}.cls-9{fill:#ec749f;}.cls-10{fill:#050000;}.cls-11{fill:#f4eff6;}.cls-12{fill:#ebe4eb;}.cls-13{fill:#827e7c;}.cls-14{fill:#716d6a;}.cls-15{fill:#f3edf5;}.cls-16{fill:#f3eef5;}.cls-17{fill:#070404;}.cls-18{fill:#060302;}.cls-19{fill:#7a7774;}.cls-20{fill:#f5eff7;}</style><clipPath id="clip-path" transform="translate(1.24 -4.23)"><circle class="cls-1" cx="44" cy="44" r="44"/></clipPath></defs><g id="圖層_2" data-name="圖層 2"><g id="圖層_1-2" data-name="圖層 1"><g class="cls-2"><path class="cls-3" d="M-1.24,59a2.25,2.25,0,0,0,1.78.77,9.94,9.94,0,0,1,6,2.26,12.7,12.7,0,0,0,8.23,2.64A12.48,12.48,0,0,0,22.1,62c.59-.45,1.07-.56,1.6,0a1.15,1.15,0,0,0,.28.19c.55.36,1.3.6,1.59,1.11s-.5,1-.7,1.61A4,4,0,0,0,27.42,70a3.8,3.8,0,0,0,4.84-2.88c.14-.68.38-.62.94-.54a5.7,5.7,0,0,1,4.08,2.85c1.29,2,2.78,3.78,4.18,5.66q1.29,1.74,2.6,0c1.73-2.31,3.47-4.61,5.17-7A2.52,2.52,0,0,1,50.93,67c.64-.11,1.29-.57,1.88-.47s.44,1,.75,1.59A3.92,3.92,0,0,0,59,69.56,3.83,3.83,0,0,0,60.12,64c-.41-.55-.35-.78.21-1a7.05,7.05,0,0,0,.94-.59c1.34-.91,1.34-.91,2.71,0a12.51,12.51,0,0,0,14.53,0,13.72,13.72,0,0,1,2.39-1.5c.69.23.49.84.48,1.3,0,3.45,0,6.9,0,10.35a8.87,8.87,0,0,1-.07,1.71,1,1,0,0,1-.65.74,19.65,19.65,0,0,0-3.51,2.15,10.42,10.42,0,0,1-11.84,0A18.14,18.14,0,0,0,63.62,76a12.1,12.1,0,0,0-12.94-.2,43.58,43.58,0,0,1-3.81,2.33,9.87,9.87,0,0,1-8.22,0,14.41,14.41,0,0,1-2.72-1.63,12.37,12.37,0,0,0-10.26-2.12A13.38,13.38,0,0,0,20.42,77a2.22,2.22,0,0,0-.72,1.23,4.61,4.61,0,0,1-3.27,1.47,2.64,2.64,0,0,0-1.95-.7,10.92,10.92,0,0,1-6.35-2A13.6,13.6,0,0,0,3,74.41c-.7-.15-1.42-.2-2.12-.34s-1.45.35-2.15.59V69.33c.05,0,.12,0,.16,0,1.18,1,2.32.57,3.34-.22a3.41,3.41,0,0,0,1.31-3.65A3.51,3.51,0,0,0,1,62.8,1.89,1.89,0,0,0-.62,63c-.19.12-.37.3-.62.18Z" transform="translate(1.24 -4.23)"/><path class="cls-4" d="M16.47,79.65a10.7,10.7,0,0,0,3.07-1.36.69.69,0,0,1,.44.24,1.27,1.27,0,0,0,1.79.06,17.94,17.94,0,0,1,1.64-1.09,10,10,0,0,1,10.6.25c1.07.65,2.05,1.46,3.19,2a12.11,12.11,0,0,0,12.12-.57c.61-.36,1.19-.78,1.79-1.18a10.22,10.22,0,0,1,12.18.25,13.35,13.35,0,0,0,5.12,2.52,12.2,12.2,0,0,0,9.89-1.93c.56-.4,1.13-.78,1.72-1.14a1,1,0,0,1,1-.18,1.29,1.29,0,0,1,.3,1c0,1.65.06,3.3,0,5a4.48,4.48,0,0,1-1.9,3.72,5.74,5.74,0,0,1-1.8.13q-34.66,0-69.35,0c-3.18,0-6.39-.39-9.55.35V75.52c1.06.7,2.31.63,3.5.84a10.31,10.31,0,0,1,3.8,1.72,19,19,0,0,0,4,2.3,16,16,0,0,0,3.35.69C14.72,81.23,16,81.21,16.47,79.65Z" transform="translate(1.24 -4.23)"/><path class="cls-5" d="M-1.24,46.64a2.54,2.54,0,0,0,2,.7c3.52,0,7,0,10.56,0,.44,0,.71.06.91.54a33.26,33.26,0,0,0,8.36,11.69.72.72,0,0,1,.14.2,9.9,9.9,0,0,1-12.3.45,14.64,14.64,0,0,0-5.81-2.79c-.65-.11-1.31-.17-2-.25a1.81,1.81,0,0,0-1.9.83Z" transform="translate(1.24 -4.23)"/><path class="cls-6" d="M80.88,77.56A11.6,11.6,0,0,0,78.63,79a12.53,12.53,0,0,1-14.82,0,12.45,12.45,0,0,0-4.47-2.27,9.87,9.87,0,0,0-7.57,1.21c-.75.48-1.46,1-2.22,1.46a12.3,12.3,0,0,1-13.52,0C35.32,79,34.67,78.45,34,78a9.8,9.8,0,0,0-10.84,0c-.42.25-.81.54-1.21.81-1.13.75-1.67.64-2.37-.51a1.56,1.56,0,0,1,.61-1.43,13.26,13.26,0,0,1,8.7-3.06,12.4,12.4,0,0,1,6.67,2.12,16.17,16.17,0,0,0,3.58,2.16,10,10,0,0,0,9.18-1A23,23,0,0,1,51.62,75a12.34,12.34,0,0,1,12,.66c.76.46,1.46,1,2.22,1.46a9.72,9.72,0,0,0,10.9,0,37.52,37.52,0,0,1,4.4-2.62,1.23,1.23,0,0,1,.62-.43,12.55,12.55,0,0,1,3.55-.52,1.38,1.38,0,0,1,1.5,1.12v.86a1.4,1.4,0,0,1-1.48,1.14,9.28,9.28,0,0,0-3.66.77A3.19,3.19,0,0,1,80.88,77.56Z" transform="translate(1.24 -4.23)"/><path class="cls-7" d="M80.88,77.56a7.77,7.77,0,0,1,4.19-1.13,1.76,1.76,0,0,0,1.69-.91V87.73a2.31,2.31,0,0,0-1.92-.7c-1.77,0-3.53,0-5.3,0a5.76,5.76,0,0,0,1.56-4.29c-.08-1.42,0-2.86,0-4.28C81.08,78.13,81.18,77.8,80.88,77.56Z" transform="translate(1.24 -4.23)"/><path class="cls-8" d="M81.08,47.35c1.23,0,2.46-.06,3.68,0a2.41,2.41,0,0,0,2-.7V58a1.87,1.87,0,0,0-1.9-.84,19.9,19.9,0,0,0-3.76.68,1.3,1.3,0,0,1-.32-1.11c0-2.75,0-5.49,0-8.24A1.44,1.44,0,0,1,81.08,47.35Z" transform="translate(1.24 -4.23)"/><path class="cls-6" d="M16.47,79.65c0,1.25-.45,1.65-1.73,1.69A12.4,12.4,0,0,1,6.94,79a11.63,11.63,0,0,0-4.62-2.34,10.69,10.69,0,0,0-1.95-.22,1.7,1.7,0,0,1-1.61-.91v-.86a1.82,1.82,0,0,1,1.8-.86A12.5,12.5,0,0,1,7.4,76.16a12,12,0,0,0,4.69,2.36,11.12,11.12,0,0,0,2.64.2A1.57,1.57,0,0,1,16.47,79.65Z" transform="translate(1.24 -4.23)"/><path class="cls-9" d="M86.76,74.66A1.8,1.8,0,0,0,85,73.8a18.35,18.35,0,0,0-3.89.69q0-6.31,0-12.62c0-.33.12-.7-.18-1a7.5,7.5,0,0,1,4-1.09A2.37,2.37,0,0,0,86.76,59v4.12a.32.32,0,0,1-.25,0,3,3,0,0,0-4.34,1.63,3.64,3.64,0,0,0,1.57,4.65,2.76,2.76,0,0,0,3-.12Z" transform="translate(1.24 -4.23)"/><path class="cls-10" d="M86.76,69.33a1.83,1.83,0,0,1-2.23.71,3.88,3.88,0,0,1,.62-7.63,2,2,0,0,1,1.61.73v1a1.31,1.31,0,0,1-1.11,1,1.83,1.83,0,0,0-.25.06,1.08,1.08,0,0,0-.91,1c0,.59.38.88.88,1a1.58,1.58,0,0,1,1.39,1.19Z" transform="translate(1.24 -4.23)"/><path class="cls-6" d="M-1.24,63.14c1.14-1.09,2.9-.89,4.14.52a3.7,3.7,0,0,1,.73,4A3.83,3.83,0,0,1,.31,70.16a1.63,1.63,0,0,1-1.55-.83v-.86A1.42,1.42,0,0,1,0,67.33c.55-.12,1.08-.37,1.05-1s-.5-.94-1.08-1a1.34,1.34,0,0,1-1.19-1Z" transform="translate(1.24 -4.23)"/><path class="cls-11" d="M-1.24,64.18A2.08,2.08,0,0,0,.23,65a1.15,1.15,0,0,1,1.09,1.22A1.16,1.16,0,0,1,.26,67.51a1.78,1.78,0,0,0-1.5,1Z" transform="translate(1.24 -4.23)"/><path class="cls-12" d="M86.76,68.47a1.71,1.71,0,0,0-1.43-.94,1.26,1.26,0,0,1,0-2.51,2,2,0,0,0,1.39-.84Z" transform="translate(1.24 -4.23)"/><path class="cls-13" d="M23.29,58.36a25.32,25.32,0,0,1-5.24-5.5,30.33,30.33,0,0,1-5.86-19.75A27.36,27.36,0,0,1,13,27.86c.17-.72.26-1.45-.52-1.91-.27-.15-.23-.33-.14-.57.28-.78.54-1.56.82-2.34.07-.2.1-.44.45-.38.82.13,1.24-.36,1.57-1a30.47,30.47,0,0,1,10.18-12,29.46,29.46,0,0,1,15-5.34A30,30,0,0,1,65.11,13.9c.37.39.69.83,1,1.25,2.22,3.56,3,7.54,3.53,11.62a31,31,0,0,1-.37,8.44A3.77,3.77,0,0,1,68.77,37c-.36.11-.38-.18-.46-.4a32.61,32.61,0,0,0-.71-7.5,25.1,25.1,0,0,0-6.34-11.82A24.31,24.31,0,0,0,48.4,10C39.5,8.1,31.66,10.23,25,16.52A24.32,24.32,0,0,0,17.5,31.4a24.75,24.75,0,0,0,6.13,20.23,25.19,25.19,0,0,0,17.21,8.65c1,.1,2.12,0,3.18,0a1.85,1.85,0,0,1,1.08.19c.07.62-.47.55-.78.63a29.56,29.56,0,0,1-8.17.72,33.74,33.74,0,0,1-10-2.1A17.37,17.37,0,0,1,23.29,58.36Z" transform="translate(1.24 -4.23)"/><path class="cls-14" d="M23.29,58.36a24.51,24.51,0,0,1,3.18,1.22,36.88,36.88,0,0,0,8.72,1.89,33,33,0,0,0,9.72-.74l.07,0c0-.05,0-.1,0-.15.14-.49.57-.37.91-.42A25.45,25.45,0,0,0,55,57.2a1.47,1.47,0,0,0,.9-1.88,29.74,29.74,0,0,1,2.87-2.23c1.15.62,1.89,0,2.63-.82A25.77,25.77,0,0,0,68,38.55a1.9,1.9,0,0,1,.18-.57c.19-.32.18-.75.55-1,.39-2,.62-4,.82-6a22.34,22.34,0,0,0-.18-4.77,30.67,30.67,0,0,0-2-8.1c-.4-1-.81-2-1.22-3a26.43,26.43,0,0,1,4.6,7.29c.31.69.68,1.21,1.51,1.15.34,0,.44.2.53.45l.51,1.55c.19.59.4,1.14-.32,1.62-.43.29-.37.88-.27,1.36a28.76,28.76,0,0,1,.64,7.16A30.08,30.08,0,0,1,65.66,55.1a30,30,0,0,1-16.29,9.59A3.24,3.24,0,0,0,47.5,66.1c-1.41,1.91-2.84,3.8-4.23,5.73-.39.54-.6.58-1,0-1.31-1.84-2.73-3.61-4-5.46a4.42,4.42,0,0,0-2.82-1.88,29.44,29.44,0,0,1-11.63-5.67A5.44,5.44,0,0,1,23.29,58.36Z" transform="translate(1.24 -4.23)"/><path class="cls-5" d="M81.08,47.35c0,3.5,0,7,0,10.48a33.77,33.77,0,0,0-4.25,2.53,10,10,0,0,1-11.7-.29c-.42-.3-.36-.41,0-.72a33.09,33.09,0,0,0,8.14-11.43c.15-.36.28-.62.77-.61C76.39,47.35,78.74,47.35,81.08,47.35Z" transform="translate(1.24 -4.23)"/><path class="cls-15" d="M28.48,67.56a1.27,1.27,0,0,1-1.21-1.37A1.19,1.19,0,0,1,28.56,65a1.26,1.26,0,0,1,1.25,1.33A1.36,1.36,0,0,1,28.48,67.56Z" transform="translate(1.24 -4.23)"/><path class="cls-16" d="M57,67.56a1.36,1.36,0,0,1-1.28-1.34A1.28,1.28,0,0,1,57,65a1.21,1.21,0,0,1,1.24,1.31A1.28,1.28,0,0,1,57,67.56Z" transform="translate(1.24 -4.23)"/><path class="cls-6" d="M14.18,76.42a4.66,4.66,0,0,1-4.61-4.85A4.75,4.75,0,0,1,14.35,67,4.8,4.8,0,0,1,19,71.79,4.74,4.74,0,0,1,14.18,76.42Z" transform="translate(1.24 -4.23)"/><path class="cls-6" d="M75.94,71.76a4.66,4.66,0,0,1-4.79,4.66,4.74,4.74,0,0,1-4.66-4.73A4.8,4.8,0,0,1,71.27,67,4.74,4.74,0,0,1,75.94,71.76Z" transform="translate(1.24 -4.23)"/><path class="cls-17" d="M15.59,57.26a1.3,1.3,0,0,1-1.32,1.28A1.23,1.23,0,0,1,13,57.32,1.3,1.3,0,0,1,14.26,56,1.39,1.39,0,0,1,15.59,57.26Z" transform="translate(1.24 -4.23)"/><path class="cls-18" d="M10.43,52.11a1.34,1.34,0,0,1-1.29,1.32,1.28,1.28,0,0,1-.07-2.56A1.32,1.32,0,0,1,10.43,52.11Z" transform="translate(1.24 -4.23)"/><path class="cls-6" d="M68.37,38c-.31,1.27-.47,2.57-.84,3.83A25.93,25.93,0,0,1,61,53.05c-.81.83-1.33.83-2.21.11-.63-.32-.45-.86-.34-1.35a2.36,2.36,0,0,1,.72-1.05A22.5,22.5,0,0,0,65.45,38a2.77,2.77,0,0,0-.88-2.69c-1.79-1.69-3.52-3.45-5.24-5.22a2.4,2.4,0,0,0-1.9-.78c-1.32,0-2.64,0-4,0-1.15,0-1.17,0-1.18,1.14v4.9a6,6,0,0,1,0,1,1.53,1.53,0,0,1-1.66,1.4,1.39,1.39,0,0,1-1.38-1.54c0-2.15,0-4.3,0-6.45a2.38,2.38,0,0,0-.9-2.08c-1.71-1.44-3.41-2.9-5.07-4.38a1.07,1.07,0,0,0-1.39-.18c-2,1-3.94,2.22-6,3.26a1.18,1.18,0,0,0-.62,1.21c0,1.55,0,3.1,0,4.64,0,.29,0,.58,0,.86a1.58,1.58,0,0,1-1.54,1.54,1.55,1.55,0,0,1-1.51-1.57,41.46,41.46,0,0,1,0-4.73A2.12,2.12,0,0,0,30.75,26c-.87-.36-1.7-.83-2.54-1.26A3.73,3.73,0,0,1,27.14,24a1.48,1.48,0,0,1,1-2.5,2.89,2.89,0,0,1,1.31.36c1.19.56,2.33,1.23,3.5,1.84a1.38,1.38,0,0,0,1.45,0c2-1.11,4-2.18,6-3.26a1.24,1.24,0,0,0,.72-1.24c0-2.09,0-4.18,0-6.27,0-.77-.17-.92-.94-.82a22.67,22.67,0,0,0-14.93,8A21.81,21.81,0,0,0,20.1,31.49a22.34,22.34,0,0,0,6.29,19.29,18.22,18.22,0,0,0,2.83,2.5c.76.52.85.5,1.35-.25.4-.59.73-1.23,1.12-1.82a.89.89,0,0,0-.23-1.39c-1.22-1-2.42-1.93-3.66-2.85a2.56,2.56,0,0,1-1.13-2.27c0-2.4,0-4.81,0-7.22,0-1.45.57-2.24,1.57-2.22s1.52.78,1.52,2.18c0,2,0,4,0,6a2,2,0,0,0,.91,1.8c1.41,1,2.76,2.15,4.13,3.22a1.73,1.73,0,0,1,.53,2.68c-.62,1.06-1.25,2.12-1.91,3.16S32.74,55.46,34,56a22.72,22.72,0,0,0,12.88,1.4c.75-.13.79-.22.39-.87-1.15-1.88-2.35-3.73-3.56-5.58A3.81,3.81,0,0,1,43,48.73c0-2.43,0-4.87,0-7.31a3.48,3.48,0,0,1,.06-.85,1.48,1.48,0,0,1,1.23-1.18,1.4,1.4,0,0,1,1.5.77,2.73,2.73,0,0,1,.31,1.41c0,1.57,0,3.15,0,4.72,0,1,.09,1.05,1.05.81,1.37-.33,2.74-.62,4.11-.93a1.6,1.6,0,0,0,1.21-1c.4-.89.78-1.79,1.18-2.67.09-.18.16-.37.24-.55.53-1.1,1.38-1.53,2.25-1.13s1.08,1.28.61,2.37-1.05,2.12-1.41,3.23a3.76,3.76,0,0,1-3.47,2.81c-1.36.16-2.69.58-4,.87-.57.12-.74.34-.41.87,1,1.58,2,3.13,3,4.71a.76.76,0,0,0,1,.29,24.52,24.52,0,0,0,2.63-1.28c.88-.46,1.54-.26,1.9.5.5,1,.36,1.5-.6,2a24.33,24.33,0,0,1-9.88,3.14,4,4,0,0,0-.57.15A26.16,26.16,0,0,1,31.64,58c-8-4-12.94-10.45-14.3-19.33A25.55,25.55,0,0,1,35.26,10.16C49.66,5.61,65.36,15.07,68,29.88a33,33,0,0,1,.48,6.58C68.37,37,68.6,37.53,68.37,38Z" transform="translate(1.24 -4.23)"/><path class="cls-19" d="M68.37,38a3.84,3.84,0,0,1,.15-1.58c0,.19,0,.41.19.55A3.12,3.12,0,0,1,68.37,38Z" transform="translate(1.24 -4.23)"/><path class="cls-5" d="M56,55.22A1.31,1.31,0,0,0,54.18,55a24.35,24.35,0,0,1-3,1.43c-.22.09-.45.23-.65-.1-1.28-2-2.57-4-3.92-6.15,2.19-.5,4.28-1,6.39-1.44a2,2,0,0,0,1.64-1.3c.62-1.5,1.32-3,2-4.46A1.35,1.35,0,0,0,56,41c-.72-.29-1.38,0-1.77.89-.58,1.27-1.15,2.54-1.72,3.82a.84.84,0,0,1-.64.6c-2,.42-4,.89-6.08,1.36V41.52a3.53,3.53,0,0,0-.06-.86,1.2,1.2,0,0,0-1.34-1,1.15,1.15,0,0,0-1.18,1.22c0,2.84,0,5.68,0,8.51a2,2,0,0,0,.46,1.09c1.46,2.28,2.92,4.56,4.42,6.92a21.81,21.81,0,0,1-6.69.6,23.68,23.68,0,0,1-8.19-2c-.64-.28-.89-.47-.41-1.17.86-1.25,1.61-2.57,2.38-3.87a1.33,1.33,0,0,0-.37-2.07c-1.6-1.25-3.19-2.52-4.81-3.74A1.21,1.21,0,0,1,29.51,44c0-2.3,0-4.59,0-6.88,0-1-.49-1.67-1.3-1.66S27,36.09,27,37.17c0,2.6,0,5.21,0,7.82a1.83,1.83,0,0,0,.8,1.59c1.44,1.09,2.84,2.23,4.28,3.31.43.33.47.58.17,1-.71,1.08-1.35,2.19-2.05,3.34a23.21,23.21,0,0,1,4.15-41,25.93,25.93,0,0,1,6.31-1.51c.73-.09.9.15.88.86,0,2.26,0,4.53,0,6.79a1,1,0,0,1-.56,1c-2.24,1.2-4.46,2.43-6.68,3.68a.92.92,0,0,1-1,0c-1.33-.72-2.68-1.41-4-2.11-1-.5-1.67-.37-2.08.36S27,23.73,28,24.24c1.31.69,2.62,1.39,3.95,2.05a.84.84,0,0,1,.56.9c0,1.86,0,3.73,0,5.59,0,1,.52,1.67,1.33,1.64S35,33.79,35,32.78c0-1.86,0-3.72,0-5.58a.89.89,0,0,1,.54-.93c2.19-1.17,4.37-2.37,6.53-3.58a.69.69,0,0,1,1,.08c2,1.74,4,3.46,6,5.16a1.2,1.2,0,0,1,.43,1q0,3.48,0,7c0,1.09.44,1.64,1.3,1.63S52,37,52,35.89c0-2,0-4.07,0-6.11,0-.56.08-.8.73-.78,1.74.05,3.49,0,5.24,0a1.32,1.32,0,0,1,1,.45q3.16,3.2,6.38,6.38a1.18,1.18,0,0,1,.4,1,22.69,22.69,0,0,1-6.38,14c-.63.66-1.3,1.28-.67,2.29A6.36,6.36,0,0,1,56,55.22Z" transform="translate(1.24 -4.23)"/><path class="cls-17" d="M72.5,57.25a1.23,1.23,0,0,1-1.27,1.29,1.29,1.29,0,0,1-1.3-1.21A1.37,1.37,0,0,1,71.19,56,1.3,1.3,0,0,1,72.5,57.25Z" transform="translate(1.24 -4.23)"/><path class="cls-18" d="M77.66,52.18a1.26,1.26,0,0,1-1.33,1.25,1.35,1.35,0,0,1-1.25-1.28,1.33,1.33,0,0,1,1.33-1.29A1.24,1.24,0,0,1,77.66,52.18Z" transform="translate(1.24 -4.23)"/><path class="cls-20" d="M14.23,73.82a2.09,2.09,0,0,1-2.07-2.15,2.15,2.15,0,0,1,2.13-2.12,2.23,2.23,0,0,1,2.15,2.14A2.16,2.16,0,0,1,14.23,73.82Z" transform="translate(1.24 -4.23)"/><path class="cls-20" d="M71.17,73.82a2.15,2.15,0,0,1-2.09-2.16,2.22,2.22,0,0,1,2.17-2.11,2.17,2.17,0,0,1,2.11,2.24A2.09,2.09,0,0,1,71.17,73.82Z" transform="translate(1.24 -4.23)"/><path class="cls-5" d="M65.77,32.55c-1.86-1.86-3.59-3.57-5.28-5.32a2.53,2.53,0,0,0-2.05-.83c-2.09,0-4.18,0-6.27,0a2.31,2.31,0,0,1-1.69-.62q-2.88-2.56-5.84-5a1.52,1.52,0,0,1-.59-1.32c0-2.21,0-4.41,0-6.62,0-1.18,0-1.2,1.15-1.06A23.21,23.21,0,0,1,65.76,32,4.71,4.71,0,0,1,65.77,32.55Z" transform="translate(1.24 -4.23)"/></g></g></g></svg>